<svg width="112" height="82" viewBox="0 0 112 82" fill="none" xmlns="http://www.w3.org/2000/svg">
<path d="M69.2311 1.84616H44.4619C43.3573 1.84616 42.4619 2.74159 42.4619 3.84616V38.7692C42.4619 39.8738 43.3573 40.7692 44.4619 40.7692H69.2311C70.3357 40.7692 71.2311 39.8738 71.2311 38.7692V3.84616C71.2311 2.74159 70.3357 1.84616 69.2311 1.84616Z" fill="#F4156A"/>
<path d="M33.6921 28.9231H8.92285C7.81828 28.9231 6.92285 29.8185 6.92285 30.9231V79.3846C6.92285 80.4892 7.81828 81.3846 8.92285 81.3846H33.6921C34.7966 81.3846 35.6921 80.4892 35.6921 79.3846V30.9231C35.6921 29.8185 34.7966 28.9231 33.6921 28.9231Z" stroke="black" stroke-linecap="round" stroke-linejoin="round"/>
<path d="M69.2311 46.6923H44.4619C43.3573 46.6923 42.4619 47.5878 42.4619 48.6923V79.3846C42.4619 80.4892 43.3573 81.3846 44.4619 81.3846H69.2311C70.3357 81.3846 71.2311 80.4892 71.2311 79.3846V48.6923C71.2311 47.5878 70.3357 46.6923 69.2311 46.6923Z" stroke="black" stroke-linecap="round" stroke-linejoin="round"/>
<path d="M103.924 1H79.1543C78.0497 1 77.1543 1.89543 77.1543 3V79.3846C77.1543 80.4892 78.0497 81.3846 79.1543 81.3846H103.924C105.028 81.3846 105.924 80.4892 105.924 79.3846V3C105.924 1.89543 105.028 1 103.924 1Z" stroke="black" stroke-linecap="round" stroke-linejoin="round"/>
<path d="M1 81.3846L111 81.3846" stroke="black" stroke-miterlimit="10" stroke-linecap="round"/>
</svg>
