<svg width="96" height="98" viewBox="0 0 96 98" fill="none" xmlns="http://www.w3.org/2000/svg">
<path d="M96 42C95.1696 31.1368 90.4779 20.9298 82.774 13.226C75.0702 5.52214 64.8632 0.830442 54 0V42H96Z" fill="#F4156A"/>
<path d="M12.4836 21.8116C20.0641 13.5993 30.4082 8.51786 41.5 7.54259V97.4574C30.4082 96.4821 20.0641 91.4008 12.4836 83.1885C4.78055 74.8435 0.5 63.8822 0.5 52.5001C0.5 41.118 4.78055 30.1566 12.4836 21.8116Z" stroke="black"/>
<path d="M77.4205 20.5795C84.9125 28.0716 89.5242 37.9573 90.4571 48.5H49.5V7.54292C60.0427 8.47581 69.9284 13.0875 77.4205 20.5795Z" stroke="black"/>
<path d="M49.5 56.5004L90.4571 56.5352C89.5242 67.0687 84.9127 76.9459 77.4207 84.4315C69.9287 91.9172 60.0428 96.525 49.5 97.4571V56.5004Z" stroke="black"/>
</svg>
