<svg width="174" height="36" viewBox="0 0 174 36" fill="none" xmlns="http://www.w3.org/2000/svg">
<g clip-path="url(#clip0_1706_3620)">
<path d="M105.265 24.9117C105.265 26.6858 104.895 28.2382 104.23 29.5688C103.565 30.9733 102.604 32.1561 101.421 33.0431C100.238 34.0041 98.8338 34.7433 97.2815 35.1869C95.7291 35.7043 94.0289 35.9261 92.1809 35.9261C90.3328 35.9261 88.6326 35.7043 87.0063 35.1869C85.454 34.6694 84.0494 33.9302 82.8667 33.0431C81.6839 32.0821 80.7969 30.8994 80.1316 29.5688C79.4663 28.1643 79.0967 26.6119 79.0967 24.9117V11.0144C79.0967 9.24025 79.4663 7.68789 80.1316 6.35729C80.7969 5.02669 81.7579 3.84394 82.9406 2.88296C84.1234 1.92197 85.454 1.18275 87.0803 0.73922C88.6326 0.221766 90.3328 0 92.1809 0C93.955 0 95.6552 0.221766 97.2076 0.73922C98.7599 1.25667 100.164 1.99589 101.347 2.95688C102.53 3.91786 103.491 5.10062 104.156 6.43121C104.822 7.83573 105.191 9.38809 105.191 11.0883V24.9117H105.265ZM98.5382 12.6407C98.5382 11.6057 98.3903 10.7926 98.0207 9.97947C97.6511 9.24025 97.2076 8.57495 96.6162 8.13142C96.0248 7.61396 95.3595 7.31828 94.6203 7.09651C93.8811 6.87474 93.0679 6.7269 92.2548 6.7269C91.4416 6.7269 90.6285 6.87474 89.8893 7.09651C89.1501 7.31828 88.4848 7.68789 87.8934 8.13142C87.302 8.64887 86.8585 9.24025 86.4889 9.97947C86.1193 10.7187 85.9714 11.6057 85.9714 12.6407V23.3593C85.9714 24.3943 86.1193 25.3552 86.4889 26.0945C86.8585 26.8337 87.302 27.499 87.8934 27.9425C88.4848 28.386 89.1501 28.7556 89.8893 28.9774C90.6285 29.1992 91.4416 29.347 92.2548 29.347C93.0679 29.347 93.8811 29.1992 94.6203 28.9774C95.3595 28.7556 96.0248 28.386 96.6162 27.9425C97.2076 27.499 97.6511 26.8337 98.0207 26.0945C98.3903 25.3552 98.5382 24.4682 98.5382 23.3593V12.6407Z" fill="#F4156A"/>
<path d="M70.226 34.2998L65.5689 20.772H61.7989V34.078C61.7989 34.8172 61.2075 35.4086 60.4683 35.4086H57.0679C56.3287 35.4086 55.7373 34.8172 55.7373 34.078V2.66116C55.7373 1.92194 56.3287 1.33057 57.0679 1.33057H67.1213C68.5258 1.33057 69.7825 1.55233 70.9652 1.92194C72.148 2.29155 73.1829 2.95685 73.996 3.69607C74.8092 4.50921 75.4745 5.4702 75.9919 6.72687C76.4355 7.90962 76.7311 9.31414 76.7311 10.9404C76.7311 13.0842 76.2876 14.8583 75.4005 16.4106C74.5135 17.963 73.1829 19.1458 71.4088 19.885L76.6572 33.9302C76.7311 34.2258 76.7311 34.5215 76.5833 34.8172C76.4355 35.1129 76.1398 35.2608 75.7702 35.2608H71.4827C70.9652 35.1868 70.4478 34.8911 70.226 34.2998ZM66.6778 6.72687H61.7989V15.3018H66.6038C72.6654 15.3018 72.9611 6.72687 66.6778 6.72687Z" fill="#F4156A"/>
<path d="M43.4655 34.6694H42.3567C41.6174 34.6694 41.0261 34.078 41.0261 33.3388V5.54412H34.7427C34.0035 5.54412 33.4121 4.95274 33.4121 4.21352V2.66116C33.4121 1.92194 34.0035 1.33057 34.7427 1.33057H43.5394H52.3361C53.0754 1.33057 53.6667 1.92194 53.6667 2.66116V4.21352C53.6667 4.95274 53.0754 5.54412 52.3361 5.54412H46.0528V33.4127C46.0528 34.1519 45.4614 34.7433 44.7222 34.7433H43.4655V34.6694Z" fill="#F4156A"/>
<path d="M163.219 24.0245C163.293 23.9506 163.219 23.8767 163.219 23.8767H160.262C159.523 23.8767 158.932 23.2853 158.932 22.5461V17.5194C158.932 16.7802 159.523 16.1888 160.262 16.1888H171.794C172.533 16.1888 173.125 16.7802 173.125 17.5194V22.9896C173.125 24.7638 172.829 26.39 172.164 27.8685C171.572 29.3469 170.611 30.6775 169.429 31.7124C168.246 32.7473 166.767 33.6344 165.067 34.2997C160.854 35.7781 153.461 35.7781 149.322 34.2997C147.622 33.7083 146.143 32.8212 144.96 31.6385C143.778 30.5297 142.891 29.1252 142.299 27.4989C141.708 25.8726 141.412 24.0985 141.412 22.1026V14.119C141.412 12.4188 141.708 10.7186 142.299 9.16622C142.891 7.61386 143.778 6.20934 144.96 5.02659C146.143 3.84384 147.548 2.88285 149.174 2.14363C151.244 1.25657 153.757 0.591274 156.492 0.591274C159.375 0.517352 162.554 0.886962 165.511 2.14363C168.468 3.40031 170.833 5.54405 172.016 8.35308C172.164 8.72269 172.164 9.01838 172.016 9.38799C171.868 9.7576 171.646 9.97936 171.277 10.1272L165.215 13.3798C164.624 13.6755 163.884 13.3798 163.515 12.7145C163.293 12.3449 163.071 11.9753 162.849 11.6056C159.671 7.68778 152.353 8.94446 152.353 14.2668V21.4373C152.353 24.542 154.866 26.1683 157.823 26.0944C159.819 26.1683 161.962 25.503 163.219 24.0245Z" fill="#F4156A"/>
<path d="M32.2296 25.7248C32.2296 27.1294 32.0818 28.386 31.86 29.5688C31.5643 30.6776 31.1208 31.6386 30.5294 32.4517C29.8641 33.2649 29.051 33.8563 28.0161 34.2998C26.9812 34.7433 25.7245 34.9651 24.2461 34.9651C22.8416 34.9651 21.6588 34.7433 20.6978 34.3737C19.7368 34.0041 18.8498 33.4867 18.2584 32.8214C17.5931 32.1561 17.1496 31.4168 16.78 30.5298C16.5582 30.0123 16.4843 29.4209 16.4103 28.8296C16.3364 28.1643 16.78 27.499 17.5192 27.3511L17.9627 27.2772C18.3323 27.2033 18.7019 27.2772 18.9976 27.499C19.2933 27.7207 19.5151 28.0164 19.589 28.386C19.589 28.6078 19.6629 28.7556 19.7368 28.9774C19.8847 29.5688 20.1804 30.1602 20.55 30.6037C21.5849 31.9343 23.9504 32.3778 25.9463 31.8604C27.9422 31.3429 28.9032 30.1602 29.1249 28.2382C29.1988 27.499 29.2728 26.6858 29.2728 25.7988C29.2728 24.7639 29.1988 23.8768 29.1249 23.2115C29.051 22.5462 28.8292 21.9548 28.4596 21.4374C28.09 20.9199 27.5726 20.4764 26.9073 20.1068C26.242 19.6632 25.281 19.2197 24.1722 18.7762C22.5459 18.037 21.2153 17.3717 20.2543 16.7064C19.2933 16.0411 18.5541 15.3758 18.0366 14.6366C17.5192 13.8973 17.1496 13.1581 17.0017 12.345C16.8539 11.5318 16.78 10.6448 16.78 9.68378C16.78 8.42711 16.9278 7.31828 17.2235 6.20945C17.5192 5.17454 18.0366 4.28748 18.7019 3.47434C19.3672 2.73512 20.1804 2.14374 21.2153 1.70021C23.2851 0.813146 26.3898 0.813146 28.4596 1.70021C29.4206 2.14374 30.2338 2.73512 30.8251 3.40042C31.4165 4.13963 31.86 4.87885 32.0818 5.692C32.2296 6.13553 32.3036 6.50514 32.3775 6.94867C32.4514 7.61397 32.0079 8.27926 31.3426 8.42711L30.973 8.50103C30.6034 8.57495 30.2338 8.50103 29.8641 8.35319C29.5685 8.13142 29.3467 7.83573 29.2728 7.46612C29.1249 6.80083 28.9032 6.20945 28.6814 5.76592C27.129 3.32649 22.2502 3.25257 20.7717 5.76592C20.4021 6.35729 20.1804 6.94867 20.1064 7.61397C19.9586 8.27927 19.9586 8.94456 19.9586 9.60986C19.9586 10.3491 20.0325 11.0144 20.1804 11.6058C20.3282 12.1971 20.55 12.7146 20.9935 13.232C21.437 13.7495 22.0284 14.2669 22.8416 14.7105C23.6547 15.154 24.6896 15.6715 26.0941 16.2628C27.5726 16.8542 28.7553 17.4456 29.6424 18.037C30.5294 18.6283 31.1947 19.3676 31.6383 20.1068C32.0818 20.846 32.3775 21.7331 32.5253 22.6201C32.1557 23.4333 32.2296 24.5421 32.2296 25.7248Z" fill="#F4156A"/>
<path d="M14.193 2.06987V26.9816C14.193 29.5688 13.5277 31.4908 12.1971 32.8214C9.46201 35.4826 4.80493 35.4826 2.06982 32.8953C0.665298 31.7126 0 29.8645 0 27.4251V2.06987C0 1.55242 0.443532 1.10889 0.960986 1.10889H1.10883C1.62628 1.10889 2.06982 1.55242 2.06982 2.06987V27.4251C2.06982 30.6038 3.99179 32.7475 7.17043 32.7475C10.5708 32.7475 12.1232 30.3081 12.1232 27.1294V2.06987C12.1232 1.55242 12.5667 1.10889 13.0842 1.10889H13.232C13.7495 1.18281 14.193 1.55242 14.193 2.06987Z" fill="#F4156A"/>
<path d="M119.828 18.8501L119.163 17.1499V33.3388C119.163 34.0781 118.571 34.6694 117.832 34.6694H111.623C110.883 34.6694 110.292 34.0781 110.292 33.3388V2.73514C110.292 1.99592 110.883 1.40454 111.623 1.40454H117.315C117.98 1.40454 118.497 1.70023 118.867 2.21768L128.92 17.1499L129.586 18.8501V2.73514C129.586 1.99592 130.177 1.40454 130.916 1.40454H137.126C137.865 1.40454 138.456 1.99592 138.456 2.73514V33.2649C138.456 34.0041 137.865 34.5955 137.126 34.5955H131.434C130.768 34.5955 130.251 34.2998 129.881 33.7824L119.828 18.8501Z" fill="#F4156A"/>
</g>
<defs>
<clipPath id="clip0_1706_3620">
<rect width="173.199" height="36" fill="white"/>
</clipPath>
</defs>
</svg>
