<svg width="105" height="105" viewBox="0 0 105 105" fill="none" xmlns="http://www.w3.org/2000/svg">
<path d="M52.4994 101.229C65.9556 101.229 76.864 90.3209 76.864 76.8646C76.864 63.4084 65.9556 52.5 52.4994 52.5C39.0432 52.5 28.1348 63.4084 28.1348 76.8646C28.1348 90.3209 39.0432 101.229 52.4994 101.229Z" stroke="black" stroke-miterlimit="10"/>
<path d="M52.4994 52.5C65.9556 52.5 76.864 41.5916 76.864 28.1354C76.864 14.6792 65.9556 3.77075 52.4994 3.77075C39.0432 3.77075 28.1348 14.6792 28.1348 28.1354C28.1348 41.5916 39.0432 52.5 52.4994 52.5Z" fill="#F4156A"/>
<path d="M76.8646 76.8648C90.3209 76.8648 101.229 65.9564 101.229 52.5001C101.229 39.0439 90.3209 28.1355 76.8646 28.1355C63.4084 28.1355 52.5 39.0439 52.5 52.5001C52.5 65.9564 63.4084 76.8648 76.8646 76.8648Z" stroke="black" stroke-miterlimit="10"/>
<path d="M28.1361 76.8648C41.5923 76.8648 52.5008 65.9564 52.5008 52.5001C52.5008 39.0439 41.5923 28.1355 28.1361 28.1355C14.6799 28.1355 3.77148 39.0439 3.77148 52.5001C3.77148 65.9564 14.6799 76.8648 28.1361 76.8648Z" stroke="black" stroke-miterlimit="10"/>
</svg>
