<svg width="105" height="105" viewBox="0 0 105 105" fill="none" xmlns="http://www.w3.org/2000/svg">
<rect x="2.59863" y="39.9019" width="65" height="60" fill="#F4156A"/>
<path d="M67.0978 75.7059C86.5956 75.7059 102.402 59.8998 102.402 40.402C102.402 20.9042 86.5956 5.09814 67.0978 5.09814C47.6 5.09814 31.7939 20.9042 31.7939 40.402C31.7939 59.8998 47.6 75.7059 67.0978 75.7059Z" stroke="black" stroke-miterlimit="10"/>
<path d="M67.0994 63.9375C80.0979 63.9375 90.6353 53.4002 90.6353 40.4016C90.6353 27.4031 80.0979 16.8657 67.0994 16.8657C54.1009 16.8657 43.5635 27.4031 43.5635 40.4016C43.5635 53.4002 54.1009 63.9375 67.0994 63.9375Z" stroke="black" stroke-miterlimit="10"/>
<path d="M67.099 52.1697C73.5983 52.1697 78.867 46.901 78.867 40.4017C78.867 33.9025 73.5983 28.6338 67.099 28.6338C60.5997 28.6338 55.3311 33.9025 55.3311 40.4017C55.3311 46.901 60.5997 52.1697 67.099 52.1697Z" stroke="black" stroke-miterlimit="10"/>
</svg>
