<svg width="126" height="25" viewBox="0 0 126 25" fill="none" xmlns="http://www.w3.org/2000/svg">
<g clip-path="url(#clip0_1551_1511)">
<path d="M121.676 4.84265L117.387 9.51759V4.84265H114.274V16.6389H117.387V11.6624L121.987 16.6389H125.999L120.344 10.4559L125.584 4.84265H121.676Z" fill="#B3B3B3"/>
<path d="M108.775 9.24949H104.486V4.84265H101.373V16.6389H104.486V11.9807H108.775V16.6389H111.887V4.84265H108.775V9.24949Z" fill="#B3B3B3"/>
<path d="M18.47 11.2267C18.4009 13.4217 18.1069 13.8574 16.8271 13.8574V16.6221H17.2941C20.4761 16.6221 21.237 15.0303 21.358 11.4948L21.4791 7.57389H24.4536V16.6221H27.5664V4.84265H18.6603L18.47 11.2267Z" fill="#B3B3B3"/>
<path d="M35.3297 8.42844H33.0816V4.84265H29.9688V16.6221H35.3643C38.7538 16.6221 39.9644 14.4941 39.9644 12.4834C39.9644 9.88622 38.2869 8.42844 35.3297 8.42844ZM35.0876 14.0417H33.0816V11.0424H35.0876C36.1598 11.0424 36.8169 11.4948 36.8169 12.4834C36.8169 13.5558 36.1944 14.0417 35.0876 14.0417Z" fill="#B3B3B3"/>
<path d="M50.0976 4.57413V0.200806H46.9848V4.57413C43.4223 4.85898 41.0186 7.32212 41.0186 10.7236C41.0186 14.1586 43.4223 16.605 46.9848 16.9066V21.3469H50.0976V16.9066C53.6601 16.6385 56.0639 14.1586 56.0639 10.7236C56.0639 7.28861 53.6601 4.84223 50.0976 4.57413ZM46.9848 14.058C45.2555 13.8235 44.1833 12.5668 44.1833 10.7236C44.1833 8.88043 45.2555 7.62373 46.9848 7.38914V14.058ZM50.0976 14.058V7.4059C51.827 7.62373 52.9164 8.88043 52.9164 10.7236C52.9164 12.5668 51.827 13.8235 50.0976 14.058Z" fill="#B3B3B3"/>
<path d="M67.7383 13.0027V9.04829C67.7383 6.16625 65.836 4.33984 62.6367 4.33984C59.3337 4.33984 57.587 6.26679 57.4314 8.27751H60.5788C60.6826 7.84186 61.1668 7.08783 62.6367 7.08783C63.8473 7.08783 64.6255 7.62403 64.6255 9.04829H61.5299C58.763 9.04829 57.1201 10.4558 57.1201 12.8016C57.1201 15.248 58.9186 16.9236 61.5127 16.9236C63.4149 16.9236 64.4698 16.0523 64.9195 15.3988C65.3345 16.1864 66.2338 16.6388 67.427 16.6388H68.4992V13.9075C67.9458 13.9075 67.7383 13.6562 67.7383 13.0027ZM64.6255 12.2319C64.6255 13.5892 63.6397 14.36 62.3427 14.36C61.2187 14.36 60.3367 13.9578 60.3367 12.7849C60.3367 11.6287 61.3051 11.4444 62.1525 11.4444H64.6428V12.2319H64.6255Z" fill="#B3B3B3"/>
<path d="M81.055 6.51807H77.579V3.18362H85.6377V0.20105H74.3105V16.6387H81.055C84.7904 16.6387 86.9347 14.8458 86.9347 11.5281C86.9347 8.41151 84.8076 6.51807 81.055 6.51807ZM80.9166 13.6561H77.5963V9.38335H80.9166C82.646 9.38335 83.6144 10.1541 83.6144 11.5114C83.6144 12.9189 82.646 13.6561 80.9166 13.6561Z" fill="#B3B3B3"/>
<path d="M98.8506 13.0026V9.04817C98.8506 6.16613 96.9483 4.33972 93.749 4.33972C90.446 4.33972 88.6993 6.26667 88.5437 8.27739H91.6911C91.7949 7.84173 92.2791 7.08771 93.749 7.08771C94.9596 7.08771 95.7378 7.6239 95.7378 9.04817H92.6422C89.8753 9.04817 88.2324 10.4557 88.2324 12.8015C88.2324 15.2479 90.0309 16.9235 92.6249 16.9235C94.5272 16.9235 95.5821 16.0522 96.0317 15.3987C96.4468 16.1862 97.346 16.6386 98.5393 16.6386H99.6115V13.9074C99.0581 13.9074 98.8506 13.6561 98.8506 13.0026ZM95.7378 12.2318C95.7378 13.5891 94.752 14.3598 93.455 14.3598C92.331 14.3598 91.449 13.9577 91.449 12.7848C91.449 11.6286 92.4174 11.4443 93.2648 11.4443H95.7551V12.2318H95.7378Z" fill="#B3B3B3"/>
<path d="M16.6363 21.6488H0V25H16.6363V21.6488Z" fill="#B3B3B3"/>
<path d="M11.3443 2.44638C10.8601 1.08914 10.324 0 8.43903 0C6.57134 0 6.00066 1.07239 5.49915 2.44638L0.345703 16.6387H3.75251L4.94576 13.2708H11.5173L12.624 16.6387H16.2557L11.3443 2.44638ZM5.94878 10.4055L8.28339 3.68633H8.36986L10.5661 10.4055H5.94878Z" fill="#B3B3B3"/>
</g>
<defs>
<clipPath id="clip0_1551_1511">
<rect width="126" height="25" fill="white"/>
</clipPath>
</defs>
</svg>
