<svg width="55" height="55" viewBox="0 0 55 55" fill="none" xmlns="http://www.w3.org/2000/svg">
<g clip-path="url(#clip0_1551_1523)">
<path d="M4.01372 41.8764C4.01372 42.4514 4.29596 42.4514 4.29596 42.4514H8.87609C10.313 42.4514 10.313 43.5888 10.313 43.8699V44.151H6.31019C5.73287 44.151 3.44922 44.151 3.44922 46.579V46.8601C3.44922 49.2753 5.73287 49.2753 6.31019 49.2753H11.4676V44.1382V43.8571C11.4676 43.576 11.4676 41.2886 8.88892 41.2886H4.29596C4.29596 41.3014 4.01372 41.3014 4.01372 41.8764ZM6.31019 48.1636C5.73287 48.1636 4.59104 48.1636 4.59104 46.8857V46.6046C4.59104 45.3139 5.73287 45.3139 6.31019 45.3139H10.3258V48.1636H6.31019Z" fill="#B3B3B3"/>
<path d="M31.7883 41.8766C31.7883 42.4517 32.0705 42.4517 32.0705 42.4517H36.6506C38.0875 42.4517 38.0875 43.589 38.0875 43.8701V44.1513H34.0719C33.5074 44.1513 31.2109 44.1513 31.2109 46.5792V46.8604C31.2109 49.2756 33.5074 49.2756 34.0719 49.2756H39.2294V44.1385V43.8574C39.2294 43.5762 39.2294 41.2888 36.6506 41.2888H32.0705C32.0705 41.3016 31.7883 41.3016 31.7883 41.8766ZM34.0847 48.1638C33.5202 48.1638 32.3656 48.1638 32.3656 46.8859V46.6048C32.3656 45.3141 33.5074 45.3141 34.0847 45.3141H38.1004V48.1638H34.0847Z" fill="#B3B3B3"/>
<path d="M44.1057 49.301H42.9639V44.1639V43.8828C42.9639 43.6016 42.9639 41.3142 45.5426 41.3142H47.2617C47.2617 41.3142 47.544 41.3142 47.544 41.8765C47.544 42.4515 47.2617 42.4515 47.2617 42.4515H45.5426C44.1057 42.4515 44.1057 43.5888 44.1057 43.87V44.1511V49.301Z" fill="#B3B3B3"/>
<path d="M20.6273 55.0003C21.1918 55.0003 21.1918 54.7191 21.1918 54.7191V49.3009H24.0527C25.1946 49.3009 28.0684 49.3009 28.0684 45.8762V44.7261C28.0684 41.3014 25.2074 41.3014 24.0527 41.3014H20.0371V49.2881V54.7063C20.0499 54.7191 20.0499 55.0003 20.6273 55.0003ZM24.0527 42.4515C25.1946 42.4515 26.9137 42.4515 26.9137 44.7261V45.8762C26.9137 48.1636 25.1946 48.1636 24.0527 48.1636H21.1918V42.4515H24.0527Z" fill="#B3B3B3"/>
<path d="M15.1748 49.3009H16.3295V35.8832C16.3295 35.8832 16.3295 35.6021 15.765 35.6021C15.1876 35.6021 15.1876 35.8832 15.1876 35.8832V49.3009H15.1748Z" fill="#B3B3B3"/>
<path d="M50.4053 49.301H51.5471V41.5953C51.5471 41.5953 51.5471 41.3142 50.9826 41.3142C50.4053 41.3142 50.4053 41.5953 50.4053 41.5953V49.301Z" fill="#B3B3B3"/>
<path d="M51.8402 39.0267C51.8402 39.6018 51.6991 39.7423 51.6991 39.7423C51.6991 39.7423 51.5452 39.8829 50.9807 39.8829C50.4033 39.8829 50.2622 39.7423 50.2622 39.7423C50.2622 39.7423 50.1211 39.589 50.1211 39.0267C50.1211 38.4644 50.2622 38.3111 50.2622 38.3111C50.2622 38.3111 50.4162 38.1705 50.9807 38.1705C51.5452 38.1705 51.6991 38.3111 51.6991 38.3111C51.6991 38.3111 51.8402 38.4517 51.8402 39.0267Z" fill="#B3B3B3"/>
<path d="M53.8453 33.1482C53.7427 33.1354 51.2025 33.161 49.1498 31.1547C47.1997 29.2123 44.1847 26.1965 43.4278 25.4554C42.9531 24.9953 42.6195 24.8803 42.3886 24.8803C42.1577 24.8803 41.8369 24.9953 41.3623 25.4554C40.2204 26.5927 39.6431 27.1677 39.6431 27.1677L38.9631 27.8578L38.2832 27.1677C38.2832 27.1677 35.4222 24.318 34.2676 23.1807C33.7929 22.7079 33.4721 22.6057 33.2284 22.6057C32.9974 22.6057 32.6639 22.7207 32.202 23.1807C31.0602 24.318 30.4829 24.8931 30.4829 24.8931L29.7901 25.5831L24.0553 19.8838L16.0369 27.8706L15.3569 27.1933C15.3569 27.1933 14.7796 26.6182 13.6377 25.4809C13.1631 25.0209 12.8423 24.9059 12.5986 24.9059C12.3676 24.9059 12.0341 25.0209 11.5722 25.4809C10.8153 26.2349 7.80033 29.2379 5.85024 31.1803C3.7847 33.161 1.25729 33.1354 1.15465 33.1482H0V31.2058H1.15465C1.15465 31.2058 1.23163 31.2058 1.42407 31.1803C1.62934 31.1675 1.91159 31.1164 2.25799 31.0269C2.93795 30.848 3.77187 30.4774 4.47749 29.7746C6.42757 27.8322 9.45533 24.8292 10.1994 24.0625C10.8794 23.3852 11.6877 22.9252 12.6114 22.9252C13.5223 22.9252 14.3434 23.3852 15.0233 24.0625C15.4467 24.4842 15.7931 24.8292 16.0625 25.0848L24.0809 17.098L29.8157 22.8101C30.0851 22.5418 30.4315 22.1968 30.8549 21.7751C31.522 21.0978 32.3431 20.6377 33.254 20.6377C34.1649 20.6377 34.986 21.085 35.666 21.7751C36.4614 22.5673 38.0651 24.1775 38.9888 25.0848C39.2582 24.8164 39.5918 24.4714 40.0152 24.0497C40.6951 23.3724 41.5034 22.9124 42.4143 22.9124C43.3252 22.9124 44.1463 23.3724 44.8134 24.0497C45.5703 24.8036 48.5981 27.8067 50.5353 29.7618C51.5874 30.8097 52.9729 31.1036 53.5759 31.1675C53.7812 31.193 53.8582 31.193 53.8582 31.193H55.0128V33.1354H53.8453V33.1482Z" fill="#B3B3B3"/>
<path d="M53.8453 27.4361C53.7427 27.4233 51.2025 27.4489 49.1498 25.4426C47.1997 23.5002 44.1847 20.4844 43.4278 19.7305C42.9531 19.2704 42.6324 19.1682 42.3886 19.1682C42.1577 19.1682 41.8369 19.2704 41.3623 19.7305C40.2204 20.8806 39.6431 21.4428 39.6431 21.4428L38.9631 22.1201L38.2832 21.4428C38.2832 21.4428 35.4222 18.5932 34.2676 17.4431C33.7929 16.983 33.4721 16.868 33.2284 16.868C32.9974 16.868 32.6639 16.9702 32.202 17.4303C31.0602 18.5804 30.4829 19.1426 30.4829 19.1426L29.7901 19.8199L24.0553 14.1206L16.0369 22.1073L15.3569 21.43C15.3569 21.43 14.7796 20.855 13.6377 19.7177C13.1631 19.2577 12.8423 19.1554 12.5986 19.1554C12.3676 19.1554 12.0341 19.2577 11.5722 19.7177C10.8153 20.4716 7.80033 23.4747 5.85024 25.4298C3.7847 27.4489 1.25729 27.4233 1.15465 27.4361H0V25.5065H1.15465C1.15465 25.5065 1.23163 25.5065 1.42407 25.4809C1.62934 25.4554 1.91159 25.4043 2.25799 25.3148C2.93795 25.1359 3.77187 24.7653 4.47749 24.0625C6.42757 22.1201 9.45533 19.1171 10.1994 18.3631C10.8794 17.6859 11.6877 17.2258 12.6114 17.2258C13.5223 17.2258 14.3305 17.6859 15.0233 18.3631C15.4467 18.7848 15.7931 19.1171 16.0625 19.3854L24.0809 11.3987L29.8157 17.098C30.0851 16.8297 30.4315 16.4846 30.8549 16.0757C31.522 15.3984 32.3431 14.9384 33.254 14.9384C34.1649 14.9384 34.986 15.3984 35.666 16.0757C36.4614 16.868 38.0651 18.4654 38.9888 19.3854C39.2582 19.1171 39.5918 18.7721 40.0152 18.3631C40.6951 17.6859 41.5034 17.2258 42.4143 17.2258C43.3252 17.2258 44.1463 17.6859 44.8134 18.3631C45.5703 19.1171 48.5981 22.1201 50.5353 24.0625C51.5874 25.1231 52.9729 25.4043 53.5759 25.4682C53.7812 25.4937 53.8582 25.4937 53.8582 25.4937H55.0128V27.4233H53.8453V27.4361Z" fill="#B3B3B3"/>
<path d="M53.8453 21.7368C53.7427 21.724 51.2025 21.7496 49.1498 19.7305C47.1997 17.7881 44.1847 14.7851 43.4278 14.0312C42.9531 13.5583 42.6324 13.4561 42.3886 13.4561C42.1577 13.4561 41.8369 13.5583 41.3623 14.0312C40.2204 15.1685 39.6431 15.7435 39.6431 15.7435L38.9631 16.4336L38.2832 15.7435C38.2832 15.7307 35.4222 12.8938 34.2676 11.7565C33.7929 11.2965 33.4721 11.1815 33.2284 11.1815C32.9974 11.1815 32.6639 11.2965 32.202 11.7565C31.0602 12.8938 30.4829 13.4689 30.4829 13.4689L29.7901 14.1589L24.0553 8.43404L16.0369 16.4208L15.3569 15.7435C15.3569 15.7435 14.7796 15.1685 13.6377 14.0312C13.1631 13.5583 12.8423 13.4561 12.5986 13.4561C12.3676 13.4561 12.0341 13.5583 11.5722 14.0312C10.8153 14.7851 7.80033 17.7881 5.85024 19.7305C3.7847 21.7496 1.25729 21.724 1.15465 21.7368H0V19.8072H1.15465C1.15465 19.7944 1.23163 19.8072 1.42407 19.7816C1.62934 19.7688 1.91159 19.7177 2.25799 19.6283C2.93795 19.4366 3.77187 19.0788 4.47749 18.376C6.42757 16.4336 9.45533 13.4178 10.1994 12.6638C10.8794 11.9866 11.6877 11.5265 12.6114 11.5265C13.5223 11.5265 14.3305 11.9866 15.0233 12.6638C15.4467 13.0855 15.7931 13.4306 16.0625 13.6989L24.0809 5.71216L29.8157 11.4115C30.0851 11.1432 30.4315 10.8109 30.8549 10.3892C31.522 9.71192 32.3431 9.23911 33.254 9.23911C34.1649 9.23911 34.986 9.69914 35.666 10.3764C36.4614 11.1687 38.0651 12.7661 38.9888 13.6861C39.2582 13.4178 39.5918 13.0728 40.0152 12.651C40.6951 11.9738 41.5034 11.5137 42.4143 11.5137C43.3252 11.5137 44.1463 11.9738 44.8134 12.651C45.5703 13.405 48.5981 16.4208 50.5353 18.3632C51.5874 19.411 52.9729 19.705 53.5759 19.7688C53.7812 19.7944 53.8582 19.7944 53.8582 19.7944H55.0128V21.724H53.8453V21.7368Z" fill="#B3B3B3"/>
<path d="M53.8453 16.0246C53.7427 16.0119 51.2153 16.0374 49.1498 14.0311C47.1997 12.0888 44.1847 9.08574 43.4278 8.31901C42.9531 7.85897 42.6195 7.74396 42.3886 7.74396C42.1577 7.74396 41.8369 7.85897 41.3623 8.31901C40.2204 9.45632 39.6431 10.0186 39.6431 10.0186L38.9631 10.7086L38.2832 10.0186C38.2832 10.0186 35.4222 7.16891 34.2676 6.0316C33.7929 5.57156 33.4721 5.45655 33.2284 5.45655C32.9974 5.45655 32.6639 5.57156 32.202 6.0316C31.0602 7.16891 30.4829 7.73118 30.4829 7.73118L29.7901 8.42124L24.0553 2.70911L16.0369 10.6959L15.3569 10.0058C15.3569 10.0058 14.7796 9.44354 13.6377 8.30623C13.1631 7.84619 12.8423 7.73118 12.5986 7.73118C12.3676 7.73118 12.0341 7.84619 11.5722 8.30623C10.8153 9.06018 7.80033 12.0632 5.85024 14.0184C3.7847 16.0502 1.25729 16.0119 1.15465 16.0246H0V14.0823H1.15465C1.15465 14.0823 1.23163 14.0823 1.42407 14.0695C1.62934 14.0567 1.91159 14.0056 2.25799 13.9161C2.93795 13.7372 3.77187 13.3666 4.47749 12.6638C6.42757 10.7214 9.45533 7.7184 10.1994 6.96445C10.8794 6.28718 11.6877 5.82714 12.6114 5.82714C13.5223 5.82714 14.3434 6.28718 15.0233 6.96445C15.4467 7.38615 15.7931 7.73118 16.0625 7.99954L24.0553 0L29.7901 5.71213C30.0595 5.44377 30.4059 5.09875 30.8293 4.67705C31.4964 3.99977 32.3175 3.53973 33.2284 3.53973C34.1393 3.53973 34.9603 3.99977 35.6403 4.67705C36.4357 5.46933 38.0394 7.06668 38.9631 7.99954C39.2326 7.73118 39.5661 7.38615 39.9895 6.96445C40.6695 6.28718 41.4777 5.82714 42.3886 5.82714C43.2995 5.82714 44.1206 6.28718 44.7877 6.96445C45.5447 7.7184 48.5724 10.7214 50.5097 12.6638C51.5617 13.7117 52.9473 14.0056 53.5503 14.0695C53.7555 14.0823 53.8325 14.0823 53.8325 14.0823H54.9872V16.0246H53.8453Z" fill="#B3B3B3"/>
</g>
<defs>
<clipPath id="clip0_1551_1523">
<rect width="55" height="55" fill="white"/>
</clipPath>
</defs>
</svg>
