<svg width="94" height="48" viewBox="0 0 94 48" fill="none" xmlns="http://www.w3.org/2000/svg">
<path d="M48.4182 11.4647H44.0762V37.7063H48.4182V11.4647Z" fill="#B3B3B3"/>
<path d="M64.664 37.6917H69.7637L75.3005 19.6825H71.0896L67.3887 33.5682H67.3158L63.6441 19.6825H59.1709" fill="#B3B3B3"/>
<path d="M52.3815 37.8228L52.3232 19.8136H56.7381L56.7236 37.8228M54.6982 11.6832C53.1829 11.6832 51.959 12.9072 51.959 14.4225C51.959 15.9378 53.1829 17.1618 54.6982 17.1618C56.2136 17.1618 57.4375 15.9378 57.4375 14.4225C57.4375 12.9072 56.2136 11.6832 54.6982 11.6832Z" fill="#B3B3B3"/>
<path fill-rule="evenodd" clip-rule="evenodd" d="M77.8063 24.2722C78.6514 23.5728 80.5893 22.5092 82.7749 22.5092C85.281 22.5092 86.1552 24.1702 86.1552 25.9624V26.6326H85.281C79.7442 26.6326 75.7373 27.8711 75.7373 32.796C75.7373 36.1763 78.3454 38.1142 81.1576 38.1142C83.7657 38.1142 85.1353 36.8466 86.2281 35.3604H86.301C86.301 36.2346 86.3301 37.1234 86.5487 37.8228H90.4973C90.3953 37.1234 90.2496 35.9141 90.2496 34.6173V26.7055C90.2496 22.1595 88.9382 19.4056 83.314 19.4056C80.531 19.4056 78.8117 20.1779 77.5732 20.7461M86.1552 29.9839C86.1552 33.2185 85.2082 35.1564 82.6 35.1564C80.9099 35.1564 79.8171 34.0345 79.8171 32.3734C79.8171 29.7362 82.0318 28.9494 85.7764 28.9494H86.1698V29.9839H86.1552Z" fill="#B3B3B3"/>
<path fill-rule="evenodd" clip-rule="evenodd" d="M38.9614 34.4862C36.8923 37.3275 33.3808 38.0269 30.1899 35.6956C25.9061 32.5921 23.706 24.6657 27.3778 19.6097C29.6945 16.4042 33.308 16.3896 36.0618 18.4003C40.5787 21.6787 42.4583 29.678 38.9614 34.4862ZM32.6377 22.9172C33.9928 24.4326 35.7996 25.03 36.6446 24.2577C37.5043 23.4855 37.0818 21.635 35.7267 20.1342C34.3716 18.6189 32.5649 18.0215 31.7198 18.7938C30.8601 19.5514 31.2681 21.4019 32.6377 22.9172ZM29.4177 17.7447C29.7091 19.1143 29.4468 9.26461 22.7298 7.38501C22.7298 7.38501 21.8847 10.5031 25.0173 13.0967C28.1646 15.6902 29.1262 16.375 29.4177 17.7447Z" fill="#B3B3B3"/>
<path fill-rule="evenodd" clip-rule="evenodd" d="M3.07422 37.6772H10.0389C17.4699 37.6772 22.8173 33.3206 22.8173 24.316C22.8173 15.4862 18.3733 10.9694 10.0389 10.9694H3.07422M7.96992 14.7286H9.6164C15.1241 14.7286 17.6156 18.4732 17.6156 24.3306C17.6156 30.1879 15.1241 33.9326 9.6164 33.9326H7.96992V14.7286Z" fill="#B3B3B3"/>
</svg>
