<svg width="52" height="55" viewBox="0 0 52 55" fill="none" xmlns="http://www.w3.org/2000/svg">
<g clip-path="url(#clip0_3415_5027)">
<path d="M4.63791 4.69828C2.51884 5.72069 0 7.98276 0 12.9293C0.00316997 13.7452 0.0638885 14.5598 0.181708 15.3672L0.231895 15.7491C0.53734 18.0198 1.4779 24.9422 4.96066 32.2147C8.47025 39.5233 11.7228 44.181 16.9665 49.4121C17.008 49.4517 20.9286 53.3121 22.8694 54.2853C23.8453 54.7562 24.9157 55.0005 26 55C27.0841 55.0016 28.1543 54.7575 29.1297 54.2862C31.0705 53.3129 34.9955 49.4526 35.0335 49.4129C40.2772 44.181 43.5306 39.5233 47.0376 32.2147C50.5247 24.9422 51.4557 18.0198 51.769 15.7431L51.8209 15.3552C52.7459 8.78276 49.9077 5.9319 47.3673 4.69828C40.9469 1.58017 33.759 0 26 0C18.241 0 11.0548 1.58017 4.64051 4.69828" fill="white"/>
<path d="M35.4024 23.8707C21.5873 26.0259 14.9048 29.6612 11.6478 33.088C9.15149 35.7164 10.022 37.7336 10.6891 38.8957C12.8281 42.2311 15.1886 45.0862 18.2508 48.1345C19.2294 49.1095 22.3384 52.0009 23.6804 52.6707C24.4038 53.0168 25.196 53.1966 25.9985 53.1966C26.801 53.1966 27.5932 53.0168 28.3166 52.6707C29.6604 52.0009 32.7702 49.1095 33.7506 48.1345C38.8376 43.0681 41.9933 38.5414 45.4042 31.4362C46.746 28.6031 47.8154 25.6497 48.598 22.6155L48.6075 22.5733C45.5903 22.6354 41.2777 22.9535 35.4024 23.8664M10.0843 11.3354H9.8143L8.99574 15.1595H9.2709C9.45772 15.1676 9.64384 15.1319 9.81427 15.0552C9.98471 14.9786 10.1347 14.8631 10.2521 14.7181C10.4996 14.4259 10.6631 13.9302 10.805 13.2526C10.947 12.575 10.9989 12.0733 10.8769 11.7871C10.7549 11.5009 10.5307 11.3371 10.0843 11.3371M46.5723 6.31899C39.792 3.02589 32.5963 1.80261 26.0003 1.80261C19.4042 1.80261 12.2068 3.02589 5.42818 6.31899C3.02356 7.4871 1.80957 9.70779 1.80957 12.9293C1.81434 13.6604 1.86956 14.3903 1.97484 15.1138L2.03108 15.5043C2.47268 19.0072 3.24712 22.4603 4.34398 25.8173C6.13944 23.5164 13.2971 21.5586 25.9977 20.8923C37.9732 20.2638 46.5265 20.3052 49.1414 20.3371C49.6147 18.1423 49.8457 16.4276 49.972 15.5043L50.0257 15.1138C50.6487 10.6923 49.4866 7.73365 46.5723 6.32072M13.6769 13.325C13.2218 15.4405 11.5622 16.7518 9.39723 16.7518H5.93178L7.42352 9.74571H10.7272C13.5411 9.74571 14.1182 11.2457 13.6769 13.325ZM16.9364 16.9388C14.8113 16.9388 13.7764 16.0905 14.1364 14.4052L15.1289 9.74571H17.9168L16.9459 14.2862C16.8283 14.8397 17.0463 15.0543 17.3379 15.0543C17.6295 15.0543 17.9393 14.8397 18.057 14.2862L19.0252 9.74571H21.8114L20.8207 14.4052C20.459 16.0905 19.0616 16.9388 16.9364 16.9388ZM24.5734 16.9388C22.1091 16.9388 21.2853 15.4405 21.7595 13.2181C22.1593 11.0345 23.7782 9.55865 26.1577 9.55865C27.9307 9.55865 29.2771 10.2811 28.8496 12.338H26.2953C26.4268 11.5423 26.169 11.3897 25.8255 11.3897C25.1047 11.3897 24.8832 12.1242 24.6374 13.2518C24.4159 14.3164 24.2983 15.1147 25.0009 15.1147C25.3643 15.1147 25.6498 14.9035 25.8497 14.1664H28.4603C28.0484 16.0923 26.317 16.9405 24.5734 16.9405M33.0099 16.7535L32.9779 15.6267H30.9583L30.4392 16.7535H27.7689L31.5121 9.74744H35.129L35.8956 16.7535H33.0099ZM39.5264 16.7535H36.7401L37.8365 11.6293H36.1059L36.5074 9.74744H42.7599L42.3541 11.6276H40.6235L39.5264 16.7535ZM44.5718 16.7535H41.7873L43.2808 9.74744H46.0653L44.5718 16.7535ZM31.7414 13.9199H32.932L32.9381 11.2759H32.9225L31.7414 13.9199Z" fill="#B3B3B3"/>
</g>
<defs>
<clipPath id="clip0_3415_5027">
<rect width="52" height="55" fill="white"/>
</clipPath>
</defs>
</svg>
