<svg width="107" height="33" viewBox="0 0 107 33" fill="none" xmlns="http://www.w3.org/2000/svg">
<g clip-path="url(#clip0_3415_5030)">
<path fill-rule="evenodd" clip-rule="evenodd" d="M10.2943 11.3406C10.5649 11.0974 10.7112 10.9155 10.4927 10.9155C10.0363 10.9155 7.27271 11.323 6.70334 9.23707C6.13359 7.15135 9.18022 0.857806 9.29507 0.588058C9.40541 0.328933 9.17739 0 8.84282 0C8.51425 0 8.27325 0.356249 8.23861 0.39988C5.12909 4.29643 0.788014 9.16289 0.22881 11.2606C-1.18595 16.5716 4.28407 18.7241 7.73683 19.1175C7.79802 19.1244 7.82834 19.0761 7.82834 19.0388V17.1531C7.82834 14.6081 8.78143 12.7021 10.2943 11.3406Z" fill="#B3B3B3"/>
<path fill-rule="evenodd" clip-rule="evenodd" d="M96.7056 11.3406C96.435 11.0974 96.2887 10.9155 96.5071 10.9155C96.9635 10.9155 99.7271 11.323 100.297 9.23707C100.866 7.15135 97.8197 0.857806 97.7048 0.588058C97.5945 0.328933 97.8225 0 98.1571 0C98.4856 0 98.7267 0.356249 98.7613 0.39988C101.871 4.29643 106.212 9.16289 106.771 11.2606C108.186 16.5716 102.716 18.7241 99.2631 19.1175C99.2019 19.1244 99.1717 19.0761 99.1717 19.0388V17.1531C99.1717 14.6081 98.2185 12.7021 96.7056 11.3406Z" fill="#B3B3B3"/>
<path fill-rule="evenodd" clip-rule="evenodd" d="M93.0717 24.899C93.0717 26.9588 90.3156 28.1355 88.522 28.1355C86.6032 28.1355 83.8887 26.9588 83.8887 24.899V17.6408C83.8887 15.5822 86.6032 14.6156 88.522 14.6156C90.3156 14.6156 93.0717 15.5822 93.0717 17.6408V24.899ZM88.522 10.1187C84.2671 10.1613 79.3008 12.6402 79.3008 17.6408V25.2473C79.3008 30.3322 84.2671 32.7278 88.522 32.7695C92.6933 32.7278 97.6601 30.3322 97.6601 25.2473V17.6408C97.6601 12.6402 92.6933 10.1613 88.522 10.1187Z" fill="#B3B3B3"/>
<path fill-rule="evenodd" clip-rule="evenodd" d="M61.0114 24.899C61.0114 26.9588 58.2543 28.1355 56.4611 28.1355C54.5428 28.1355 51.8284 26.9588 51.8284 24.899V17.6408C51.8284 15.5822 54.5428 14.6156 56.4611 14.6156C58.2543 14.6156 61.0114 15.5822 61.0114 17.6408V24.899ZM56.4611 10.1187C52.2068 10.1613 47.2402 12.6402 47.2402 17.6408V25.2473C47.2402 30.3322 52.2068 32.7278 56.4611 32.7695C60.6325 32.7278 65.5995 30.3322 65.5995 25.2473V17.6408C65.5995 12.6402 60.6325 10.1613 56.4611 10.1187Z" fill="#B3B3B3"/>
<path fill-rule="evenodd" clip-rule="evenodd" d="M46.8973 11.7747C43.5012 10.8488 40.9898 10.4614 37.3502 10.4608C33.7092 10.4599 31.1915 10.8482 27.8016 11.7712C27.6409 11.8075 27.6095 11.9735 27.6836 12.0737C28.844 13.0399 29.3311 14.3313 29.5567 15.7888C31.4211 15.332 33.1021 15.0655 35.056 14.9553V32.6202C35.0542 32.6831 35.0998 32.7219 35.1662 32.7219H39.5321C39.6075 32.7278 39.6445 32.6948 39.6437 32.6242V14.9583C41.5225 15.0703 43.0899 15.3354 44.9402 15.7888C45.2219 14.3396 45.8097 12.9881 46.9984 12.0833C47.1038 11.9516 47.0132 11.8062 46.8973 11.7747Z" fill="#B3B3B3"/>
<path fill-rule="evenodd" clip-rule="evenodd" d="M79.4665 10.2747C79.1403 10.2286 78.1769 10.0886 77.3285 10.1207C73.1492 10.2819 68.4229 12.7666 68.4229 17.641V18.0341V25.248V32.6674C68.4214 32.7301 68.4668 32.7691 68.5335 32.7691H72.8994C72.9749 32.775 73.0119 32.742 73.0104 32.6712V32.2778H73.0112V17.641C73.0112 16.0336 74.9756 15.0396 76.6144 14.7047C77.091 13.102 78.0273 11.9458 79.4603 10.7865C79.7114 10.5834 79.698 10.307 79.4665 10.2747Z" fill="#B3B3B3"/>
<path fill-rule="evenodd" clip-rule="evenodd" d="M22.8717 18.924C22.8717 18.9754 22.8522 19.0227 22.8198 19.0567C22.7846 19.0943 22.7343 19.1183 22.679 19.1183H14.3106V17.5871C14.3106 15.4981 16.7748 14.5182 18.7209 14.5182C20.5401 14.5182 22.8729 15.4981 22.8729 17.5871L22.8717 18.924ZM18.7209 9.95728C14.4056 10.0001 9.65723 12.5146 9.65723 17.5871V25.3015C9.65723 30.4589 14.4056 32.8888 18.7209 32.9312C21.8125 32.9002 25.3325 31.6118 27.0078 28.8804C27.0637 28.7898 27.0142 28.6703 26.9291 28.6201C25.452 27.7669 24.5946 27.2944 23.1307 26.4643C23.0845 26.4381 23.0348 26.4381 22.9974 26.5008C22.1976 27.8431 20.1561 28.5839 18.7209 28.5839C16.7748 28.5839 14.3106 27.3901 14.3106 25.3015V22.9967H26.2731C26.9122 22.9967 27.4299 22.475 27.4299 21.8309V17.5871C27.4299 12.5146 22.9516 10.0001 18.7209 9.95728Z" fill="#B3B3B3"/>
</g>
<defs>
<clipPath id="clip0_3415_5030">
<rect width="107" height="33" fill="white"/>
</clipPath>
</defs>
</svg>
