<svg width="113" height="54" viewBox="0 0 113 54" fill="none" xmlns="http://www.w3.org/2000/svg">
<g clip-path="url(#clip0_1551_1611)">
<path d="M34.7461 35.3057H41.8842V37.6348H38.4873V54.0009H34.7422V35.3057" fill="#B5B5B5"/>
<path d="M46.1211 46.9786L46.7633 37.6309H46.98L47.6222 46.9786H46.1211ZM41.9736 53.997H45.6375L45.9857 49.0335H47.7499L48.0981 53.997H51.762L49.8082 35.3018H43.9236L41.9736 53.997Z" fill="#B5B5B5"/>
<path d="M57.124 47.4538V50.9765C57.124 51.4516 57.4916 51.5907 57.7082 51.5907C58.0603 51.5907 58.3079 51.301 58.3079 50.9765V46.6233C58.3079 46.04 58.1996 45.3988 56.8029 45.3988H55.2824V43.3439H56.8648C57.9249 43.3439 58.3079 43.0967 58.3079 41.9495V38.2413C58.3079 37.9207 58.0642 37.6272 57.7082 37.6272C57.4916 37.6272 57.124 37.7508 57.124 38.2413V41.289H53.3789V38.6392C53.3789 37.3375 53.5337 35.298 56.1568 35.298H59.2558C61.8789 35.298 62.0491 37.3375 62.0491 38.6392V41.6289C62.0491 43.6684 60.6215 44.2207 59.5034 44.1744V44.3598C62.0221 44.298 62.0491 46.2293 62.0491 46.8859V50.6559C62.0491 51.9731 61.8789 53.9971 59.2558 53.9971H56.1568C53.5337 53.9971 53.3789 51.9731 53.3789 50.6559V47.4538H57.124Z" fill="#B5B5B5"/>
<path d="M64.5059 35.3057H73.1761V54.0009H69.431V37.6348H68.251V54.0009H64.5059V35.3057Z" fill="#B5B5B5"/>
<path d="M79.3779 45.588V37.6348H79.8693C80.2678 37.6348 80.5579 37.9709 80.5579 38.5696V44.6533C80.5579 45.252 80.2678 45.588 79.8693 45.588H79.3779ZM75.6328 53.997H79.3779V47.6391H81.5252C84.1328 47.6391 84.303 45.6151 84.303 44.2979V38.643C84.303 37.3412 84.1328 35.3018 81.5252 35.3018H75.6328V53.997Z" fill="#B5B5B5"/>
<path d="M91.6849 50.9803C91.6849 51.3009 91.4411 51.5945 91.0852 51.5945C90.8685 51.5945 90.501 51.4555 90.501 50.9803V38.249C90.501 37.7585 90.8685 37.6348 91.0852 37.6348C91.4373 37.6348 91.6849 37.9245 91.6849 38.249V50.9803ZM86.7598 50.6597C86.7598 51.9769 86.93 54.0009 89.5376 54.0009H92.6521C95.2597 54.0009 95.43 51.9769 95.43 50.6597V38.6469C95.43 37.3451 95.2597 35.3057 92.6521 35.3057H89.5376C86.93 35.3057 86.7598 37.3451 86.7598 38.6469V50.6597Z" fill="#B5B5B5"/>
<path d="M107.618 35.3057H112.497V54.0009H108.752V42.2778H108.612L106.678 54.0009H103.683L101.764 42.2778H101.625V54.0009H97.8799V35.3057H102.747L105.188 48.4541L107.618 35.3057Z" fill="#B5B5B5"/>
<path d="M29.8948 9.74646C28.7496 4.73659 25.875 0.661492 25.4804 0.000976562C24.8536 0.935741 22.5632 4.53574 21.3987 8.52201C20.1258 12.9795 19.9401 16.9349 20.3773 20.8091C20.8145 24.7027 22.4587 28.7005 22.4587 28.7005C23.3331 30.7864 24.6447 33.0383 25.4997 34.1392C26.7494 32.513 29.624 27.6731 30.5215 21.3615C31.0168 17.8349 31.04 14.7563 29.8948 9.74646ZM25.4765 32.8838C24.9116 31.8254 24.0373 29.8207 23.956 26.692C23.9328 23.6907 25.1438 21.0988 25.4958 20.5619C25.8092 21.0988 26.85 23.3508 26.9738 26.4293C27.0589 29.4345 26.0607 31.81 25.4765 32.8838ZM29.5621 18.2482C29.5195 20.1641 29.2912 22.1881 28.9972 23.3971C29.1017 21.3151 28.8502 18.3872 28.3743 16.089C27.8946 13.8061 26.5404 9.97436 25.4571 8.21299C24.459 9.89711 23.2287 13.2074 22.5825 16.0735C21.9364 18.9396 21.9171 22.416 21.9171 23.4589C21.7469 22.586 21.3174 19.4456 21.4374 16.3014C21.5379 13.7134 22.1454 11.0289 22.4781 9.80441C23.7471 5.71385 25.1863 3.0911 25.4571 2.6778C25.728 3.0911 27.5386 6.32415 28.4788 9.7117C29.4112 13.0993 29.6007 16.3516 29.5621 18.2482Z" fill="#B5B5B5"/>
<path d="M27.4228 35.3057H18.7062V41.1421C18.7139 41.1421 18.7217 41.1267 18.7294 41.1267C20.7838 39.0718 24.1149 39.0718 26.1693 41.1267C28.2237 43.1662 28.2237 46.4881 26.1693 48.543C26.1616 48.5585 26.15 48.5584 26.1422 48.5739C26.1306 48.5739 26.119 48.5893 26.1113 48.6048C24.0608 50.6288 21.3873 51.6408 18.7101 51.6408C16.0212 51.6408 13.3323 50.6288 11.2818 48.5778C7.66434 44.9778 7.23876 39.3846 9.99342 35.3095C10.3648 34.7572 10.7943 34.2357 11.2818 33.7451C13.3323 31.6902 16.0212 30.6821 18.7101 30.6821V16.6451C8.37621 16.6451 0.00390625 24.9962 0.00390625 35.3095C0.00390625 45.6228 8.38008 53.9893 18.7101 53.9893C24.0956 53.9893 28.951 51.7065 32.3634 48.0756V35.3134H27.4228" fill="#B5B5B5"/>
</g>
<defs>
<clipPath id="clip0_1551_1611">
<rect width="112.5" height="54" fill="white"/>
</clipPath>
</defs>
</svg>
