<svg width="114" height="38" viewBox="0 0 114 38" fill="none" xmlns="http://www.w3.org/2000/svg">
<g clip-path="url(#clip0_1551_1575)">
<path d="M44.4804 10.4717C44.4804 4.11371 39.837 1.29232 34.0004 0.379803C31.8925 0.03946 29.9735 0 27.8605 0C19.0361 0 5.40904 1.52414 1.03408 10.5062C0.382809 11.8035 0 13.6285 0 15.1526C0 17.4759 0.348008 19.5722 1.34232 21.777C3.03264 25.506 6.06032 27.6417 10.2066 27.6417C11.36 27.6417 12.3941 27.5283 13.0453 27.2965C13.6966 27.0301 14.3479 26.5369 14.3479 25.6243C14.3479 25.1656 14.0048 24.6724 13.5027 24.48C12.9658 24.2876 12.5034 24.2531 11.0865 24.1742C9.66469 24.1002 9.16753 24.0607 8.16825 23.9818C6.59724 23.8289 5.78688 22.798 5.78688 21.8115C5.78688 20.9335 6.40335 20.1739 7.55178 19.6412C6.01557 19.0691 4.95663 17.6238 4.95663 15.9961C4.95663 13.6285 6.81599 11.7985 9.82378 11.7985C10.475 11.7985 11.2407 11.9515 11.8919 12.1438C12.4289 12.2967 13.0056 12.4102 13.622 12.4102C14.3529 12.4102 15.193 12.3707 15.8841 12.1783V13.7025C15.5013 13.6236 14.2733 13.5496 13.622 13.5496C14.2335 14.2352 14.5815 15.1872 14.5815 16.0997C14.5815 18.2305 12.8912 20.021 9.89835 20.021C9.63983 20.021 9.36142 20.0112 9.03827 19.9717C8.72506 20.0358 8.44169 20.169 8.22294 20.3466C7.89482 20.608 7.74567 20.9434 7.74567 21.2443C7.74567 21.7375 8.01413 22.1223 9.2421 22.1963L11.887 22.3492C14.4573 22.5021 15.8393 23.528 15.8045 25.358C15.73 27.4543 14.0396 28.9735 9.97292 28.9735C8.89907 28.9735 7.47721 28.7811 6.21443 28.4013C5.2947 28.135 4.40976 27.6417 3.64414 27.0696C7.09937 32.9343 13.2392 37.9951 20.3386 37.9951C23.7938 37.9951 26.7469 36.7767 29.5111 34.7593C36.1133 29.891 44.4804 18.9605 44.4804 10.4717ZM12.4736 16.1342C12.4736 14.4226 11.4843 13.0563 9.6448 13.0563C8.03402 13.0563 7.06457 14.1218 7.06457 15.6804C7.06457 17.4315 8.09368 18.8027 9.97292 18.8027C11.6185 18.8126 12.4736 17.6978 12.4736 16.1342ZM38.4151 23.4146C37.8384 23.8338 36.9982 24.0607 36.0735 24.0607C34.8853 24.0607 33.8861 23.4146 32.6581 21.9644C30.6993 19.6412 29.1283 17.7767 29.1283 17.7767V20.825C29.1283 22.9559 29.2426 23.3011 29.4365 23.7944H26.5978C26.8265 23.1877 26.9458 22.9559 26.9458 20.825V10.2793C26.9458 8.56775 26.8314 7.80322 26.4834 7.34943L29.1333 6.66381V16.8692L32.6283 13.6334C32.6283 13.6334 33.3193 13.0267 33.9308 12.2277H36.9634C36.8093 12.2671 36.2724 12.3806 34.3534 14.1711L31.0921 17.2194C31.0921 17.2194 33.0508 19.5031 34.8953 21.5205C36.3122 23.0446 37.391 23.5034 38.0423 23.5034C38.1467 23.4935 38.3008 23.454 38.4151 23.4146L25.2107 20.7905C25.2107 23.3406 22.6404 24.2186 20.4927 24.2186C19.1504 24.2186 17.9622 23.9522 16.7293 23.459V21.703C17.997 22.3886 19.568 22.8079 20.5673 22.8079C21.6411 22.8079 22.9835 22.5415 22.9835 21.2837C22.9835 20.026 21.6411 19.4193 20.1795 18.7336C18.5687 17.974 16.8386 17.1355 16.8386 15.1921C16.8386 12.8344 19.1405 11.8035 21.2136 11.8035C22.3272 11.8035 23.4408 12.0698 24.4003 12.6025V14.3191C23.4806 13.594 22.367 13.1747 21.1788 13.1747C20.0254 13.1747 18.9167 13.6285 18.9167 14.6594C18.9167 15.8777 20.3734 16.5633 21.9096 17.3229C23.5204 18.122 25.2107 19.0345 25.2107 20.7905L38.4151 23.4146Z" fill="#B3B3B3"/>
<path d="M112.285 28.6724H109.79C109.864 28.0263 110.138 27.2272 111.092 27.2272C111.942 27.2223 112.285 27.8734 112.285 28.6724ZM113.305 29.3926C113.314 29.3186 113.319 29.2051 113.319 29.1163C113.319 27.5774 112.778 26.4627 111.097 26.4627C109.641 26.4627 108.756 27.5675 108.756 29.0917C108.756 30.8082 109.521 31.9081 111.366 31.9081C112.246 31.9081 112.554 31.7207 112.902 31.5678V30.6158C112.673 30.8082 112.057 31.1485 111.405 31.1485C110.486 31.1485 109.795 30.4235 109.795 29.3975L113.305 29.3926ZM107.836 31.7947V28.7069C107.836 27.3012 107.259 26.4627 105.917 26.4627C105.186 26.4627 104.535 26.803 104.266 27.4146H104.226V26.5761H103.307V31.7947H104.266V29.3926C104.266 28.1003 104.689 27.1828 105.802 27.2223C106.648 27.2617 106.876 27.8684 106.876 29.0867V31.7898L107.836 31.7947ZM101.984 24.8645C101.984 24.5587 101.756 24.2924 101.447 24.2924C101.134 24.3022 100.881 24.5538 100.871 24.8645C100.871 25.1654 101.139 25.3972 101.447 25.3972C101.741 25.4022 101.979 25.1753 101.984 24.8843C101.984 24.8793 101.984 24.8744 101.984 24.8645ZM101.905 31.7947V26.5761H100.945V31.7947H101.905ZM99.9957 31.7552C99.6129 31.6418 99.5383 31.3754 99.5383 31.0351V24.5587H98.539V31.1436C98.539 31.6369 98.7677 31.9032 99.3047 31.9032C99.6527 31.9081 99.8466 31.8292 99.9957 31.7552ZM97.9276 31.7947L94.9098 28.0559L97.669 24.6771H96.4858L93.9553 27.8388V24.6771H92.9461V31.7947H93.9553V28.3321L96.6001 31.7947H97.9276ZM91.5043 31.7947V28.7069C91.5043 27.3012 90.9276 26.4627 89.5853 26.4627C88.8545 26.4627 88.3176 26.7685 87.9745 27.3406H87.9347V24.5636H86.9752V31.7947H87.9347V29.3926C87.9347 28.1003 88.3573 27.1828 89.471 27.2223C90.3161 27.2617 90.5448 27.8684 90.5448 29.0867V31.7898H91.5043V31.7947ZM86.0754 31.7552V30.9562C85.9213 31.0302 85.7324 31.1485 85.4241 31.1485C84.9667 31.1485 84.6187 30.8082 84.6187 30.1966V27.3406H85.9262V26.581H84.6138V25.0569L83.6542 25.3627V26.581H82.7345V27.3406H83.6542V30.3889C83.6542 31.4543 84.2707 31.9081 85.265 31.9081C85.5733 31.9081 85.8815 31.8292 86.0754 31.7552ZM81.9788 24.8645C81.9788 24.5587 81.7104 24.2924 81.4021 24.2924C81.0939 24.2924 80.8652 24.5587 80.8652 24.8645C80.8652 25.1654 81.0939 25.3972 81.4021 25.3972C81.7104 25.3972 81.9788 25.1654 81.9788 24.8645ZM81.8645 31.7947V26.5761H80.905V31.7947H81.8645ZM79.6074 31.7947V28.4406C79.6074 27.2962 79.1103 26.4627 77.7679 26.4627C77.3056 26.4627 76.5002 26.729 76.1572 27.4541C75.8887 26.7685 75.2722 26.4627 74.6607 26.4627C73.8951 26.4627 73.3582 26.729 72.9704 27.3406V26.581H72.0507V31.7996H73.0102V29.1706C73.0102 28.1792 73.4328 27.2272 74.3923 27.2272C75.1977 27.2272 75.3518 28.0263 75.3518 28.6724V31.7947H76.3113V29.1657C76.3113 28.1742 76.6941 27.2223 77.6934 27.2223C78.459 27.2223 78.6131 28.0213 78.6131 28.6675V31.7898L79.6074 31.7947ZM71.2105 29.8118C71.2105 28.3666 69.9825 27.9473 68.9086 27.4541C68.7148 27.3801 68.5258 27.3012 68.3717 27.1877C68.0635 26.9954 67.8348 26.729 67.8348 26.3492C67.8348 25.5896 68.6004 25.3578 69.2517 25.3578C69.7638 25.3578 70.3156 25.5156 70.7084 25.6636L70.8625 24.8251C70.3255 24.6327 69.7091 24.5193 69.2119 24.5193C67.7553 24.5193 66.6814 25.2049 66.6814 26.4627C66.6814 27.8339 68.0237 28.1742 68.9832 28.633C69.5201 28.8599 70.1366 29.2051 70.1366 29.8513C70.1366 30.7638 69.1771 31.0696 68.5606 31.0696C67.9839 31.0696 67.278 30.892 66.8703 30.7293L66.7957 31.6418C67.2134 31.775 67.9143 31.9081 68.3866 31.9081C69.9626 31.9081 71.2105 31.2965 71.2105 29.8118ZM60.5863 31.7947L58.896 29.0522L60.4322 26.581H59.3185L58.3193 28.4455L57.32 26.581H56.1318L57.668 29.0522L55.9429 31.7947H57.0963L58.2497 29.7378L59.3981 31.7947H60.5863ZM50.2057 31.7552C49.8229 31.6418 49.7434 31.3754 49.7434 31.0351V24.5587H48.7441V31.1436C48.7441 31.6369 48.9728 31.9032 49.5097 31.9032C49.8627 31.9081 50.0914 31.8292 50.2057 31.7552ZM47.5608 31.6023V28.4948H46.5268V30.8822C46.2583 30.9562 46.0644 30.9956 45.3734 30.9956C43.8769 30.9956 42.649 29.8907 42.649 28.2137C42.649 26.6156 43.7626 25.4367 45.4131 25.4367C46.2981 25.4367 46.9891 25.6636 47.4067 25.9299L47.4863 24.8991C46.8748 24.6722 46.4124 24.5193 45.3783 24.5193C43.1909 24.5193 41.5801 26.0039 41.5801 28.1742C41.5801 30.458 43.0765 31.9032 45.3435 31.9032C46.487 31.9081 47.1383 31.7207 47.5608 31.6023ZM65.9406 29.1657C65.9406 27.6021 65.0209 26.4627 63.4449 26.4627C61.8341 26.4627 60.9144 27.607 60.9144 29.1657C60.9144 30.6898 61.8341 31.9032 63.4449 31.9032C65.0209 31.9081 65.9406 30.6898 65.9406 29.1657ZM64.9016 29.1657C64.9016 30.1176 64.5585 31.1436 63.4449 31.1436C62.2915 31.1436 61.9485 30.1176 61.9485 29.1657C61.9485 28.1742 62.3711 27.2223 63.4449 27.2223C64.4442 27.2223 64.9016 28.1742 64.9016 29.1657ZM55.222 31.7947C55.1822 31.6418 55.1822 31.3754 55.1822 30.7638V28.5935C55.1822 27.1828 54.6453 26.4627 53.1489 26.4627C52.4578 26.4627 51.9607 26.655 51.4585 26.9559L51.5331 27.755C51.9159 27.4492 52.418 27.2223 52.9898 27.2223C53.9493 27.2223 54.178 27.681 54.178 28.5935C53.7952 28.554 53.5615 28.554 53.1787 28.554C52.1794 28.554 50.8769 28.9733 50.8769 30.2705C50.8769 31.4149 51.6077 31.9081 52.7163 31.9081C53.6013 31.9081 54.0587 31.4149 54.2525 31.1091H54.2923V31.7947H55.222ZM54.1879 29.7724C54.1879 30.5369 53.7653 31.1436 52.8058 31.1436C52.3832 31.1436 51.9259 30.8378 51.9259 30.2656C51.9259 29.3531 53.1141 29.2742 53.6162 29.2742C53.8449 29.2742 53.999 29.3136 54.1929 29.3136L54.1879 29.7724Z" fill="#B3B3B3"/>
</g>
<defs>
<clipPath id="clip0_1551_1575">
<rect width="113.321" height="38" fill="white"/>
</clipPath>
</defs>
</svg>
