<svg width="136" height="16" viewBox="0 0 136 16" fill="none" xmlns="http://www.w3.org/2000/svg">
<g clip-path="url(#clip0_1551_1649)">
<path d="M41.0472 16C32.381 16 28.5088 12.7504 28.5088 7.94228C28.5029 3.2785 32.381 0 41.0472 0C49.6778 0 53.5559 3.26118 53.5559 7.94228C53.5499 12.7504 49.6897 16 41.0472 16ZM97.7734 15.4113L82.4037 15.3997L82.4097 13.443C82.4097 13.443 83.9681 13.2641 84.6045 13.1833C85.235 13.1025 85.4848 12.5772 85.4848 12C85.4848 11.4228 85.4908 4.74459 85.4908 4.06349C85.4908 3.38817 85.1696 2.99567 84.4855 2.89755C83.8015 2.80519 82.3859 2.66667 82.3859 2.66667V0.577201H97.7734C104.756 0.577201 107.778 3.87302 107.778 7.80375C107.778 12.1616 104.756 15.4113 97.7734 15.4113ZM54.234 15.4632V13.4315C54.234 13.4315 56.0719 13.2352 56.3574 13.1833C57.0533 13.0678 57.3031 12.6176 57.2972 11.9134V4.1443C57.2972 3.38817 56.9522 2.96681 56.2087 2.886C55.9708 2.86291 54.228 2.66667 54.228 2.66667V0.571429C54.228 0.571429 64.8988 0.565657 65.0593 0.565657C65.6423 0.571429 66.0348 0.836941 66.3441 1.21789C66.4036 1.29293 74.4334 11.5902 74.4334 11.5902C74.4334 11.5902 74.4394 4.92929 74.4334 4.23088C74.4334 3.5267 74.1776 3.00721 73.446 2.92063C73.2141 2.89177 71.3642 2.68398 71.3642 2.68398V0.571429H81.1844V2.66089C81.1844 2.66089 79.4654 2.83983 79.1026 2.89755C78.258 3.02453 78.1212 3.57864 78.1152 4.16739C78.1093 4.75613 78.1152 15.4632 78.1152 15.4632H70.4126C69.901 15.4632 69.3954 15.2381 69.1159 14.8918C68.9315 14.6667 60.9731 4.44444 60.9731 4.44444C60.9731 4.44444 60.9671 11.3362 60.9731 12.0173C60.979 12.6984 61.318 13.1198 61.9426 13.1948C62.5671 13.2698 64.0422 13.4257 64.0422 13.4257V15.4574L54.234 15.4632ZM0.00594801 15.4574L0 13.4719C0 13.4719 1.25503 13.3276 2.03422 13.2352C2.81341 13.1429 3.07512 12.658 3.07512 11.8095V4.25397C3.07512 3.49206 2.87884 2.96681 2.05801 2.8456C1.77251 2.80519 0.011896 2.61472 0.011896 2.61472V0.571429H12.2886L12.2707 2.5974C12.2707 2.5974 10.4388 2.79942 10.2008 2.83405C9.5763 2.92063 9.21942 3.31313 9.21942 4.16739V6.52237H18.6768V4.21356C18.6768 3.47475 18.4507 2.92063 17.737 2.82828C17.0232 2.73593 15.6016 2.58009 15.6016 2.58009L15.6076 0.565657H27.8843L27.8664 2.5974C27.8664 2.5974 26.4032 2.76479 25.7549 2.83983C25.1066 2.91486 24.8092 3.40548 24.8092 4.20202C24.8092 4.34055 24.8032 11.0996 24.8092 11.9538C24.8151 12.8081 25.3028 13.1255 25.7073 13.1775C26.1118 13.2294 27.8843 13.4199 27.8843 13.4199L27.8783 15.4574H15.6076L15.6195 13.4141C15.6195 13.4141 17.4872 13.2121 17.7251 13.1659C18.5637 13.0043 18.6768 12.4502 18.6768 11.7749C18.6708 11.0996 18.6768 9.50072 18.6768 9.50072H9.21347C9.21347 9.50072 9.20752 10.8802 9.21347 11.8846C9.21942 12.8889 9.70715 13.1717 10.177 13.2352C10.7718 13.3102 12.2826 13.4719 12.2826 13.4719V15.4574H0.00594801ZM100.724 8C100.724 4.25397 99.1652 3.4228 95.4239 3.4228H91.4983V12.531H95.4239C99.1652 12.531 100.724 11.7807 100.724 8ZM46.5015 7.99423C46.5015 4.13276 44.509 2.86291 41.0294 2.86291C37.5438 2.86291 35.5572 4.13276 35.5572 7.99423C35.5572 11.9076 37.5498 13.1544 41.0294 13.1544C44.5149 13.1486 46.5015 11.9019 46.5015 7.99423ZM116.385 15.4632H106.565V13.4315C106.565 13.4315 107.921 13.2525 108.652 13.1602C109.384 13.0678 109.675 12.5022 109.759 12.3752C109.842 12.2482 114.547 4.85426 114.957 4.19048C115.368 3.5267 114.933 3.02453 114.398 2.92641C114.023 2.86291 111.68 2.62626 111.68 2.62626V0.565657H123.665C124.415 0.588745 124.878 1.4026 124.878 1.4026L131.76 11.6248C132.319 12.4502 132.742 13.0505 133.42 13.1486C134.104 13.2468 135.567 13.4084 135.567 13.4084L135.579 15.4517H122.309L122.321 13.4315C122.321 13.4315 123.195 13.3218 123.992 13.2179C124.789 13.114 125.461 12.7792 124.801 11.8384C124.141 10.8975 124.153 10.9033 124.153 10.9033L114.749 10.9264C114.749 10.9264 114.458 11.3535 114 12.0404C113.542 12.7273 114.023 13.1602 114.701 13.241L116.385 13.443V15.4632ZM116.468 8.24242L122.392 8.27128L119.394 3.67677L116.468 8.24242Z" fill="#B3B3B3"/>
</g>
<defs>
<clipPath id="clip0_1551_1649">
<rect width="135.579" height="16" fill="white"/>
</clipPath>
</defs>
</svg>
