<svg width="91" height="27" viewBox="0 0 91 27" fill="none" xmlns="http://www.w3.org/2000/svg">
<g clip-path="url(#clip0_1551_1580)">
<path d="M16.4316 10.2669L25.404 19.1293C26.22 17.3834 26.7248 15.4439 26.7248 13.3602C26.7248 9.70141 25.1763 6.35385 22.7852 3.93616L16.4316 10.2669ZM45.8575 4.05002H42.5935L35.4201 12.715V4.10695H32.7482V22.2795H35.4201V13.3602L42.5935 22.2225H46.2219L38.5438 12.9655L45.8575 4.05002Z" fill="#B3B3B3"/>
<path d="M20.6206 2.19376C18.5103 0.842585 16.0091 0 13.3637 0C12.0429 0 10.7487 0.22393 9.51135 0.561723V26.1884C10.7487 26.5528 12.0429 26.7236 13.3637 26.7236C16.1192 26.7236 18.6811 25.881 20.8483 24.4425L9.73528 13.2802L20.6206 2.19376ZM3.60187 22.5904V4.19395C1.28286 6.68375 -0.00378705 9.96299 8.37309e-06 13.3637C8.37309e-06 16.9352 1.35118 20.1727 3.60187 22.5904ZM74.0716 4.04972H70.7809L63.6076 12.7147V4.10665H60.9622V22.2792H63.6076V13.3599L70.7809 22.2222H74.4094L66.7274 12.9652L74.0716 4.04972ZM78.4325 4.10665H75.2823V22.2792H77.8974V17.6373H84.0611L87.0709 22.2792H90.1642L78.4325 4.10665ZM77.8442 15.5575V7.70851L82.8504 15.5575H77.8442ZM58.8557 9.53791C58.8557 6.52813 56.4077 4.11045 53.4282 4.11045H47.4618V22.2829H50.0769V12.912L56.4077 22.2792H60.0361L54.6921 14.8249C57.0832 14.2063 58.8557 12.096 58.8557 9.53791ZM50.0769 12.6615V6.21691H52.9766C54.7491 6.27384 56.1572 7.76544 56.1572 9.48098C56.1572 11.2534 54.6921 12.7185 52.95 12.7185L50.0769 12.6615Z" fill="#B3B3B3"/>
</g>
<defs>
<clipPath id="clip0_1551_1580">
<rect width="90.1642" height="26.7274" fill="white"/>
</clipPath>
</defs>
</svg>
