<svg width="110" height="29" viewBox="0 0 110 29" fill="none" xmlns="http://www.w3.org/2000/svg">
<path d="M106.102 5.65588H106.362C106.518 5.65588 106.639 5.69054 106.639 5.86385C106.639 5.96784 106.604 6.07183 106.396 6.07183H106.102M105.859 6.81707H106.102V6.26247H106.31C106.587 6.26247 106.604 6.38379 106.604 6.50511C106.604 6.73042 106.604 6.76508 106.656 6.81707H106.916C106.864 6.74775 106.882 6.71309 106.864 6.50511C106.864 6.36646 106.847 6.21048 106.674 6.17582C106.864 6.08916 106.899 5.96784 106.899 5.86385C106.899 5.51723 106.604 5.48256 106.466 5.48256H105.876V6.81707H105.859ZM105.252 6.15849C105.252 5.53456 105.738 5.01462 106.344 5.01462C106.951 5.01462 107.436 5.51723 107.436 6.15849C107.436 6.78241 106.951 7.30235 106.344 7.30235C105.738 7.28502 105.252 6.78241 105.252 6.15849ZM105.01 6.15849C105.01 6.90373 105.616 7.49299 106.344 7.49299C107.09 7.49299 107.679 6.8864 107.679 6.15849C107.679 5.41324 107.09 4.82397 106.344 4.82397C105.599 4.82397 105.01 5.41324 105.01 6.15849Z" fill="#B3B3B3"/>
<path d="M3.69141 24.183V4.82397H10.9359V21.514H13.6222V24.183" fill="#B3B3B3"/>
<path d="M21.439 16.228H19.8619L20.6591 11.9645M30.1393 24.183L26.673 4.80664H19.2553L15.373 24.183H18.2327L19.2899 19.105H21.8376L22.7042 24.183H30.1393Z" fill="#B3B3B3"/>
<path d="M43.155 24.183H37.609C37.0891 24.183 31.4564 24.183 31.7683 13.9402C32.0456 4.80664 37.3144 4.80664 37.3144 4.80664H43.155V7.31968H41.9591C41.6818 7.31968 41.1966 7.28501 40.5726 7.90894C39.9834 8.4982 40.07 8.91416 40.07 8.91416C40.07 8.35955 40.07 20.1102 40.07 20.1102C40.07 20.3528 40.0354 20.5435 40.486 21.1327C40.8153 21.566 41.4219 21.566 41.4219 21.566C41.1619 21.566 43.155 21.566 43.155 21.566" fill="#B3B3B3"/>
<path d="M50.9888 16.228H49.4117L50.2089 11.9645M59.6891 24.183L56.2229 4.80664H48.8051L44.9229 24.183H47.7825L48.8397 19.105H51.3874L52.254 24.183H59.6891Z" fill="#B3B3B3"/>
<path d="M62.5654 24.183V4.82397H69.8099V21.514H72.4963V24.183" fill="#B3B3B3"/>
<path d="M74.7148 4.80664V20.8034C74.7842 21.7046 75.8934 24.651 81.4567 24.6856C88.2679 24.7376 88.3892 20.8554 88.3892 20.8554C88.3892 21.1154 88.3892 4.80664 88.3892 4.80664H85.6509V20.1102C85.6509 20.2835 85.3389 21.618 83.9351 21.618C82.3059 21.618 82.0113 20.0408 82.0113 20.0408C82.046 20.4395 82.0113 4.80664 82.0113 4.80664" fill="#B3B3B3"/>
<path d="M90.8154 7.64897V4.80664H104.213V7.68363H101.006V24.183H94.0564V7.64897" fill="#B3B3B3"/>
</svg>
