<svg width="106" height="30" viewBox="0 0 106 30" fill="none" xmlns="http://www.w3.org/2000/svg">
<g clip-path="url(#clip0_1551_1606)">
<path d="M105.303 0.617188H0.661133V29.0096H105.303V0.617188Z" fill="#004282"/>
<path fill-rule="evenodd" clip-rule="evenodd" d="M18.641 23.5225L22.2444 12.5485V23.5225H27.6312V6.06726H20.3517L16.8576 14.7949L13.3634 6.06726H6.08398V23.5225H11.4708V12.5485L15.1105 23.5225H18.641ZM76.6219 16.7466C78.2962 16.5993 79.9705 15.4577 79.9705 13.5428V9.6025V9.23424C79.7885 7.2825 78.3326 6.21456 76.5855 6.06726H62.7182V23.5225H68.105V16.7466H70.2524L73.7465 23.5225H79.9341L75.7484 16.7466H76.6219ZM75.0932 12.2171C75.0932 12.5854 74.984 12.9168 74.3289 12.9168H68.0686V9.49202H74.3289C75.0932 9.49202 75.0932 10.0076 75.0932 10.3022V12.2171ZM43.828 9.49202V6.06726H29.7786V23.5225H43.9736V20.0977H35.1654V16.3415H43.7916V12.9168H35.1654V9.49202H43.828ZM50.5615 9.49202H45.4294V6.06726H61.0803V9.49202H55.9483V23.5225H50.5615V9.49202ZM96.968 6.06726H85.5029C83.7922 6.21456 82.3363 7.09837 82.1179 9.08694V20.3555C82.2999 22.3441 83.7558 23.3752 85.5029 23.5225H96.968C98.6787 23.3752 100.135 22.3441 100.353 20.3555V9.08694C100.135 7.09837 98.6787 6.21456 96.968 6.06726ZM94.9297 19.3244C94.8933 19.5085 94.8206 20.0241 94.1654 20.0977H88.3054C87.6503 20.0241 87.5047 19.5085 87.5047 19.3244V10.1917C87.5411 10.0076 87.6139 9.56567 88.269 9.49202H94.129C94.7842 9.56567 94.857 9.97075 94.8934 10.1917V19.3244H94.9297Z" fill="#004282"/>
<path d="M105.303 0.617188H0.661133V29.0096H105.303V0.617188Z" fill="#B3B3B3"/>
<path fill-rule="evenodd" clip-rule="evenodd" d="M18.641 23.5225L22.2444 12.5485V23.5225H27.6312V6.06726H20.3517L16.8576 14.7949L13.3634 6.06726H6.08398V23.5225H11.4708V12.5485L15.1105 23.5225H18.641ZM76.6219 16.7466C78.2962 16.5993 79.9705 15.4577 79.9705 13.5428V9.6025V9.23424C79.7885 7.2825 78.3326 6.21456 76.5855 6.06726H62.7182V23.5225H68.105V16.7466H70.2524L73.7465 23.5225H79.9341L75.7484 16.7466H76.6219ZM75.0932 12.2171C75.0932 12.5854 74.984 12.9168 74.3289 12.9168H68.0686V9.49202H74.3289C75.0932 9.49202 75.0932 10.0076 75.0932 10.3022V12.2171ZM43.828 9.49202V6.06726H29.7786V23.5225H43.9736V20.0977H35.1654V16.3415H43.7916V12.9168H35.1654V9.49202H43.828ZM50.5615 9.49202H45.4294V6.06726H61.0803V9.49202H55.9483V23.5225H50.5615V9.49202ZM96.968 6.06726H85.5029C83.7922 6.21456 82.3363 7.09837 82.1179 9.08694V20.3555C82.2999 22.3441 83.7558 23.3752 85.5029 23.5225H96.968C98.6787 23.3752 100.135 22.3441 100.353 20.3555V9.08694C100.135 7.09837 98.6787 6.21456 96.968 6.06726ZM94.9297 19.3244C94.8933 19.5085 94.8206 20.0241 94.1654 20.0977H88.3054C87.6503 20.0241 87.5047 19.5085 87.5047 19.3244V10.1917C87.5411 10.0076 87.6139 9.56567 88.269 9.49202H94.129C94.7842 9.56567 94.857 9.97075 94.8934 10.1917V19.3244H94.9297Z" fill="white"/>
</g>
<defs>
<clipPath id="clip0_1551_1606">
<rect width="106" height="30" fill="white"/>
</clipPath>
</defs>
</svg>
