<svg width="83" height="36" viewBox="0 0 83 36" fill="none" xmlns="http://www.w3.org/2000/svg">
<path d="M41.4 0C18.5365 0 0 8.05978 0 18.0013C0 24.2507 7.32315 29.7556 18.4444 32.9836L27.0369 10.4973C27.8628 8.36065 30.8487 3.89603 37.3323 3.70479C39.1137 3.61045 42.6729 4.55896 42.6729 7.17246C42.6729 8.17452 41.5058 8.98534 40.0657 8.98534C38.6257 8.98534 37.4586 8.17197 37.4586 7.17246C37.4586 6.17041 38.6257 5.35959 40.0657 5.35959C39.6221 4.94143 38.2844 4.37028 37.3323 4.37028C36.3803 4.37028 34.1553 4.65585 32.7562 8.21786L30.5313 13.9166H38.8577L35.2985 23.3201H30.8828L34.0291 15.0563H30.1184L22.843 34.0953C28.4258 35.3141 34.7286 36 41.4 36C64.2635 36 82.8 27.9402 82.8 17.9987C82.8034 8.05978 64.2669 0 41.4 0ZM23.505 14.7631C22.0445 18.8962 17.0214 18.8478 15.3697 18.8478H12.1279L10.3466 23.3124H5.57938L10.4763 10.4897H8.06024L8.44243 9.54119H18.5501C24.1432 9.53864 24.2046 12.532 23.505 14.7631ZM48.2113 23.3226H37.851L45.2254 15.0589H40.9666L41.4102 13.9191H51.8353L44.4576 22.1829H48.6515L48.2113 23.3226ZM64.8675 18.858H56.0326C55.3979 20.3776 55.0157 22.3257 56.7322 22.3716C58.4487 22.42 59.4007 21.1375 59.974 19.8549H64.2976C62.8985 23.3226 58.9571 23.6541 56.4797 23.5597C51.204 23.3226 50.5045 20.8519 51.6476 18.1925C53.1082 14.6789 56.2237 13.4423 60.0389 13.4423C65.5671 13.5392 65.5671 16.9584 64.8675 18.858ZM77.8178 17.1242C76.5006 17.1242 75.337 16.3184 75.4359 15.1787C74.5145 15.3215 73.1154 16.7213 72.8595 17.4352L70.5697 23.3252H65.7377L68.9147 15.0614H67.0071L67.4507 13.9217H74.1904L73.6171 15.4413C75.0162 14.0645 76.9852 13.7075 77.811 13.6845C79.1282 13.6845 80.1929 14.3628 80.1929 15.3444C80.1997 16.3261 79.1316 17.1242 77.8178 17.1242ZM56.4797 17.8967C56.9233 16.8513 57.5614 14.4775 59.7864 14.4775C62.0113 14.4775 60.8681 16.9941 60.5473 17.8967H56.4797ZM15.3766 10.4769H17.3456C18.8709 10.5254 19.5056 11.5682 18.6798 14.2761C17.854 16.9839 15.9464 17.8865 14.4859 17.8865H12.5169L15.3766 10.4769Z" fill="#B3B3B3"/>
</svg>
