<svg width="134" height="26" viewBox="0 0 134 26" fill="none" xmlns="http://www.w3.org/2000/svg">
<g clip-path="url(#clip0_1551_1570)">
<path d="M129.778 3.77911H132.927C132.324 4.10492 131.587 4.69139 130.649 5.53851L127.5 8.66633L129.242 11.0774C131.051 13.6187 132.659 15.5084 133.999 16.8769H129.443C128.907 15.5736 128.103 14.2703 127.232 12.9671L125.155 9.96958L126.964 7.75404C128.572 5.79916 129.51 4.43074 129.778 3.77911ZM124.954 5.27785V15.4433L125.088 16.2252C125.155 16.3555 125.356 16.4859 125.691 16.551V16.942H121.269V16.551L121.872 16.2252C121.939 16.0949 122.006 15.8342 122.006 15.4433V5.27785L121.939 4.4959C121.872 4.36557 121.671 4.23525 121.336 4.17008V3.77911H125.758V4.23525C125.423 4.30041 125.222 4.36557 125.155 4.56106L124.954 5.27785ZM118.388 5.27785V15.4433L118.522 16.2252L119.125 16.551V16.942H114.703V16.551C115.038 16.4859 115.239 16.3555 115.373 16.2252L115.507 15.4433V10.1651H110.348V15.4433L110.482 16.2252C110.549 16.3555 110.75 16.4859 111.085 16.551V16.942H106.596V16.551C106.931 16.4859 107.199 16.3555 107.266 16.2252L107.4 15.4433V5.27785L107.266 4.56106C107.199 4.43074 106.931 4.30041 106.596 4.23525V3.77911H111.085V4.23525C110.75 4.30041 110.549 4.36557 110.482 4.56106L110.348 5.27785V9.31795H115.507V5.27785L115.373 4.56106C115.239 4.43074 115.038 4.30041 114.703 4.23525V3.77911H119.125V4.23525C118.79 4.30041 118.589 4.36557 118.522 4.56106L118.388 5.27785ZM133.999 21.5034H35.1736V20.2002H133.999V21.5034ZM96.8806 4.23525V3.77911H100.767C100.834 4.36557 100.968 5.0172 101.236 5.73399L104.117 13.5535C104.586 14.922 105.055 16.0297 105.524 16.8769H102.107L100.633 12.1851H96.2775L95.3396 15.3129L95.0715 16.8769H92.5926L96.9475 7.03725C97.3495 5.99465 97.6175 5.27785 97.6175 4.88688C97.6846 4.4959 97.4166 4.30041 96.8806 4.23525ZM98.4885 5.99465L96.6125 11.2728H100.298L98.4885 5.99465ZM91.5876 6.64627H90.8506L90.6496 6.05981C90.4486 5.40818 90.1806 5.0172 89.8456 4.82171L87.9696 4.56106H86.1606C85.7586 4.56106 85.4906 4.62622 85.3566 4.75655C85.2226 4.88688 85.1556 5.08236 85.1556 5.34302V8.47084H85.8926C88.1035 8.47084 89.5776 8.66633 90.4486 9.12247C91.6546 9.70893 92.2575 10.8167 92.2575 12.5109C92.2575 14.14 91.7886 15.3129 90.8506 16.0297C89.9796 16.6162 88.7066 16.8769 86.8976 16.8769H81.4706V16.4859L82.1406 16.1601L82.2746 15.3781V5.27785L82.1406 4.56106C82.0736 4.43074 81.8056 4.30041 81.4706 4.23525V3.77911H91.5206V6.64627H91.5876ZM85.2226 9.31795V14.922C85.2226 15.3781 85.2896 15.6388 85.4906 15.7691C85.6916 15.9646 85.9596 16.0297 86.4286 16.0297H86.8306C87.7016 16.0297 88.3046 15.7691 88.7736 15.1826C89.1086 14.6613 89.3096 13.8142 89.3096 12.6413C89.3096 11.4683 89.1085 10.6864 88.7066 10.1651C88.3046 9.57861 87.5006 9.31795 86.4286 9.31795H85.2226ZM80.3316 7.55856C80.3316 9.0573 79.8626 10.1651 78.9246 10.8167C78.1206 11.4032 76.8476 11.6638 75.1056 11.6638H73.7656V15.3781L73.8996 16.1601C73.9666 16.2904 74.1676 16.4207 74.5696 16.4859V16.8769H70.1476V16.4859L70.7506 16.1601L70.8846 15.3781V5.27785L70.7506 4.56106C70.6836 4.43074 70.4826 4.30041 70.1476 4.23525V3.77911H75.7756C77.3166 3.77911 78.3886 3.9746 79.1256 4.43074C79.9296 5.0172 80.3316 6.05981 80.3316 7.55856ZM73.8996 4.69139C73.7656 4.75655 73.6986 4.95204 73.6986 5.27785V10.8167H75.0386C75.9096 10.8167 76.4456 10.4909 76.8476 9.90442C77.1156 9.38312 77.3166 8.536 77.3166 7.36307C77.3166 5.47334 76.5126 4.56106 74.9046 4.56106H74.5696L73.8996 4.69139ZM68.0036 6.64627H67.2666L67.0656 6.05981C66.8646 5.40818 66.5296 5.0172 66.1946 4.82171L64.4526 4.56106H62.9786L62.4426 4.69139L62.2416 5.21269V9.25279H64.0506C65.2566 9.25279 66.0606 9.12247 66.4626 8.86181V10.4909C66.0606 10.2302 65.2566 10.0999 64.0506 10.0999H62.2416V14.9871C62.2416 15.3781 62.3756 15.6388 62.6436 15.8342L64.3186 16.0297H64.7206L66.5966 15.7691C66.9316 15.5736 67.1996 15.0523 67.3336 14.3355L67.4676 13.8142H68.3386V16.8769H58.6236V16.4859C58.9586 16.4207 59.1596 16.2904 59.2936 16.1601L59.4276 15.3781V5.27785L59.2936 4.56106C59.2266 4.43074 58.9586 4.30041 58.6236 4.23525V3.77911H68.0706V6.64627H68.0036ZM56.3456 6.64627H55.6086L55.4076 6.05981C55.2066 5.40818 54.9386 5.0172 54.5366 4.82171L52.7946 4.56106H50.9186C50.5166 4.56106 50.2486 4.62622 50.1146 4.75655C50.0476 4.88688 49.9806 5.08236 49.9806 5.34302V8.47084H50.7176C52.8616 8.47084 54.4026 8.66633 55.2736 9.12247C56.4796 9.70893 57.0826 10.8167 57.0826 12.5109C57.0826 14.14 56.6136 15.3129 55.6756 16.0297C54.8716 16.6162 53.5316 16.8769 51.7226 16.8769H46.2956V16.4859C46.6306 16.4207 46.8986 16.2904 46.9656 16.1601L47.0996 15.3781V5.27785L46.9656 4.56106C46.8986 4.43074 46.6306 4.30041 46.2956 4.23525V3.77911H56.3456V6.64627ZM42.8116 4.82171C42.4096 4.56106 41.7396 4.43074 40.8686 4.43074C39.5286 4.43074 38.5236 4.88688 37.9876 5.86432C37.5186 6.71144 37.2506 8.07986 37.2506 9.96958C37.2506 11.8593 37.5186 13.2929 38.0546 14.2052C38.7246 15.3129 39.7966 15.8994 41.3376 15.8994C42.4766 15.8994 43.6156 15.6388 44.6876 15.1175L45.0896 15.9646C43.8166 16.7465 42.2756 17.1375 40.5336 17.1375C36.2456 17.1375 34.1016 14.922 34.1016 10.556C34.1016 5.92948 36.3126 3.58362 40.7346 3.58362C42.4096 3.58362 43.7496 3.77911 44.6876 4.17008V6.90693H43.8166L43.5486 6.12497C43.4146 5.53851 43.1466 5.08237 42.8116 4.82171ZM50.0476 9.31795V14.922C50.0476 15.3781 50.1146 15.6388 50.2486 15.7691C50.4496 15.9646 50.7846 16.0297 51.2536 16.0297H51.5886C53.1966 16.0297 54.0676 14.8568 54.0676 12.6413C54.0676 11.4683 53.8666 10.6864 53.4646 10.1651C53.0626 9.57861 52.2586 9.31795 51.1196 9.31795H50.0476Z" fill="#B3B3B3"/>
<path d="M22.3762 1.69424L23.5822 2.73684L8.44022 11.208L1.13722 7.10276L1.80722 5.7995L8.44022 9.51378L22.3762 1.69424ZM19.2942 0L20.9022 0.781955L8.44022 7.75438L2.67822 4.5614L3.68322 3.38847L8.50722 6.06015L19.2942 0ZM24.5872 3.84461L25.4582 5.01754L8.44022 14.5313L0.199219 9.96992L0.601219 8.47118L8.44022 12.8371L24.5872 3.84461Z" fill="#B3B3B3"/>
<path d="M27.068 8.14534C27.537 9.51376 27.805 10.9473 27.805 12.4461C27.805 13.9448 27.537 15.4436 27.068 16.812L26.733 17.7243C25.996 19.3534 25.058 20.7869 23.785 22.025C22.512 23.2631 21.038 24.2406 19.363 24.8922C17.621 25.609 15.812 26 13.936 26C12.06 26 10.251 25.609 8.509 24.8922C6.901 24.2406 5.427 23.2631 4.087 22.025C2.814 20.7869 1.809 19.3534 1.139 17.7243C0.335 16.0301 0 14.2707 0 12.4461V11.5338L8.442 16.2255L26.331 6.25562L27.068 8.14534Z" fill="#B3B3B3"/>
</g>
<defs>
<clipPath id="clip0_1551_1570">
<rect width="134" height="26" fill="white"/>
</clipPath>
</defs>
</svg>
