<svg width="58" height="46" viewBox="0 0 58 46" fill="none" xmlns="http://www.w3.org/2000/svg">
<g clip-path="url(#clip0_1551_1644)">
<path d="M33.4794 40.1854C33.6785 39.7638 34.1722 39.6127 34.6102 39.6048C36.8241 39.5968 39.046 39.6127 41.2599 39.5968C41.2838 40.432 41.2599 41.2672 41.2679 42.0945C38.608 42.1024 35.9402 42.1024 33.2803 42.0945C33.3121 41.4581 33.1927 40.782 33.4794 40.1854Z" fill="white"/>
<path d="M23.2386 0.0875459C29.6016 -0.135176 35.9647 0.0875459 42.3197 0.493218C42.9887 0.548898 43.6656 0.548898 44.3266 0.684122C44.6849 0.77162 45.0672 0.906844 45.2742 1.22502C45.4654 1.57501 45.4654 1.98864 45.5211 2.3784C45.6724 4.27949 45.7202 6.19649 45.8556 8.09758C45.5769 8.12939 45.3061 8.08962 45.0274 8.08167C40.1297 7.82713 35.232 7.62031 30.3263 7.61236C27.7859 7.62031 25.2455 7.59645 22.7051 7.71577C22.0918 7.80326 21.391 8.01008 21.0406 8.55893C22.9599 8.90096 24.8791 9.26686 26.7984 9.61686C33.1614 10.81 39.5244 11.9713 45.8875 13.1565C45.8795 14.3656 45.8875 15.5667 45.8875 16.7758C42.3117 16.1871 38.736 15.5428 35.1603 14.9383C27.4674 13.6179 19.7744 12.2736 12.0814 10.9611C12.0974 9.62481 12.1531 8.28848 12.185 6.94419C12.2328 5.88627 12.2009 4.81243 12.4398 3.77041C12.5991 3.03861 12.9017 2.29885 13.4592 1.77387C14.4228 0.819346 15.8085 0.556852 17.1066 0.421629C19.1373 0.22277 21.1919 0.167089 23.2386 0.0875459ZM12.0416 12.7111C23.0634 14.7395 34.0772 16.8076 45.099 18.8519C45.338 18.9075 45.6008 18.9155 45.8317 19.003L45.8556 19.0666C45.7919 20.8723 45.76 22.6779 45.6963 24.4835C45.6565 25.5971 45.537 26.7664 44.9637 27.7448C44.3505 28.763 43.2037 29.3198 42.0649 29.5345C40.3925 29.8448 38.6882 29.8686 36.992 29.9641C29.7052 30.2982 22.4104 30.1152 15.1316 29.6141C14.5502 29.5743 13.9609 29.5664 13.3955 29.3993C13.1008 29.3039 12.7982 29.1607 12.6389 28.8902C12.4637 28.5323 12.4478 28.1346 12.408 27.7448C12.2487 25.6369 12.169 23.529 12.0576 21.4211C15.8085 21.6597 19.5673 21.795 23.3262 21.8745C26.9577 21.9302 30.5891 21.9302 34.2126 21.97C34.9931 22.0018 35.8452 21.8506 36.4345 21.3018C36.5221 21.2063 36.6655 21.1109 36.6495 20.9598C35.017 20.7132 33.3844 20.4109 31.7518 20.1405C25.1818 19.0189 18.6117 17.9053 12.0416 16.7758C12.0337 15.4235 12.0416 14.0713 12.0416 12.7111ZM31.8952 38.8411C32.4686 38.2446 33.3287 38.0537 34.125 38.0377C37.207 38.0377 40.2969 38.0298 43.3789 38.0377C43.3868 40.6865 43.3868 43.3433 43.3789 45.9921H41.2765C41.2605 45.2205 41.2685 44.4489 41.2765 43.6774C38.6245 43.6297 35.9647 43.6774 33.3127 43.6535C33.2411 44.4251 33.3048 45.2126 33.2809 45.9921H31.1785C31.1466 44.3217 31.1785 42.6592 31.1625 40.9888C31.1625 40.2331 31.3377 39.4059 31.8952 38.8411ZM33.48 40.1854C33.2012 40.782 33.3127 41.4581 33.2809 42.0945C35.9408 42.1104 38.6086 42.1024 41.2685 42.0945C41.2605 41.2593 41.2844 40.424 41.2605 39.5968C39.0466 39.6127 36.8247 39.5968 34.6108 39.6047C34.1728 39.6047 33.6791 39.7638 33.48 40.1854ZM45.9591 38.0457C49.9489 38.0218 53.9467 38.0457 57.9445 38.0377C57.9764 38.5548 57.9605 39.0798 57.9525 39.5968C56.304 39.5968 54.6555 39.5968 53.007 39.5968C53.015 41.7286 53.015 43.8603 53.007 46H50.9126C50.8727 44.0671 50.9046 42.1342 50.8966 40.2013C50.8727 39.9945 50.9683 39.7638 50.8489 39.5809C50.4984 39.6286 50.148 39.5968 49.7976 39.6047C48.5234 39.6047 47.2413 39.6127 45.9671 39.6047C45.9512 39.0798 45.9512 38.5627 45.9591 38.0457Z" fill="#B3B3B3"/>
<path d="M0.92311 38.3161C1.48057 38.0377 2.11767 38.0377 2.73088 38.0377C5.9084 38.0457 9.08593 38.0298 12.2714 38.0457C12.2714 38.5548 12.2714 39.0559 12.2714 39.565C9.03815 39.5968 5.80487 39.565 2.5716 39.5809C2.3088 39.565 1.97432 39.6763 1.91858 39.9627C1.89468 40.1854 1.87876 40.4718 2.07785 40.6229C2.26102 40.774 2.50789 40.774 2.73884 40.8058C5.36687 41.0286 8.00286 41.2354 10.6309 41.4581C11.2441 41.5297 11.9131 41.641 12.367 42.1024C12.805 42.5319 12.8926 43.1921 12.8767 43.7728C12.8687 44.3694 12.7333 45.0216 12.2794 45.4432C11.8653 45.7932 11.3078 45.9682 10.7663 45.9364C7.30205 45.9284 3.82987 45.9443 0.365649 45.9284C0.349722 45.4273 0.333794 44.9262 0.373613 44.4251C3.63078 44.441 6.88794 44.4251 10.1371 44.433C10.3601 44.441 10.607 44.4171 10.7742 44.258C10.9733 44.0194 10.9813 43.6614 10.8539 43.383C10.7026 43.1444 10.3999 43.0967 10.1451 43.0808C7.83563 42.8819 5.53411 42.691 3.22463 42.5001C2.50789 42.4285 1.76727 42.4365 1.09035 42.1819C0.668271 42.0228 0.30194 41.7047 0.142665 41.2751C-0.0484644 40.8377 0.0471003 40.3524 0.0152454 39.8911C-0.0405007 39.2468 0.333794 38.5866 0.92311 38.3161ZM15.5764 38.0457C19.6458 38.0377 23.7073 38.0457 27.7768 38.0457C27.8166 38.0457 27.8883 38.0616 27.9201 38.0616C27.9201 38.5627 27.9122 39.0718 27.9201 39.5729C27.7927 39.6127 27.6573 39.5968 27.5299 39.5968C24.2489 39.5968 20.9758 39.5968 17.6947 39.5968C17.6788 40.1138 17.6947 40.6308 17.6868 41.1479C20.0918 41.1638 22.4968 41.1479 24.9099 41.1558C25.7779 41.1717 26.6459 41.124 27.506 41.1797C27.4981 41.6729 27.4981 42.166 27.506 42.6592C27.3069 42.691 27.0999 42.6831 26.8928 42.6831C23.8268 42.6831 20.7528 42.6831 17.6868 42.6831C17.7027 43.1205 17.6469 43.5899 17.8699 43.9796C18.1009 44.3694 18.6105 44.4251 19.0247 44.433C21.9872 44.433 24.9497 44.441 27.9122 44.433C27.9201 44.9262 27.9122 45.4273 27.9122 45.9284C26.7017 45.9762 25.4832 45.9364 24.2728 45.9523C22.1783 45.9523 20.0918 45.9523 17.9973 45.9523C17.2647 45.8966 16.5002 45.6103 16.0462 45.0057C15.656 44.4728 15.5445 43.7967 15.5604 43.1524C15.5764 41.4422 15.5604 39.7399 15.5764 38.0457Z" fill="#B3B3B3"/>
</g>
<defs>
<clipPath id="clip0_1551_1644">
<rect width="57.96" height="46" fill="white"/>
</clipPath>
</defs>
</svg>
