<svg width="55" height="46" viewBox="0 0 55 46" fill="none" xmlns="http://www.w3.org/2000/svg">
<path d="M19.6839 9.76919C20.1907 8.60738 21.4697 9.20029 21.4697 9.20029C21.4697 9.20029 24.7894 10.979 33.8948 15.0537C43.0002 19.1283 54.3511 13.4744 54.3511 13.4744L27.3921 0C15.5658 8.8161 0.430409 11.9764 0.430409 11.9764L0.47243 11.9875L34.9348 28.9825C34.4279 30.1443 33.1489 29.5514 33.1489 29.5514C33.1489 29.5514 29.8293 27.7726 20.7239 23.698C11.6185 19.6233 0.267578 25.2791 0.267578 25.2791L27.2292 38.7517C39.0555 29.9356 54.1909 26.7752 54.1909 26.7752L54.1462 26.7641L19.6839 9.76919Z" fill="#B3B3B3"/>
<path d="M0 43.9235L4.14694 43.9383C4.21785 44.2135 4.10492 44.2117 4.32553 44.3557C4.66695 44.5792 5.19746 44.631 5.64131 44.5755C6.00637 44.5312 6.57102 44.4518 6.59728 44.1341C6.62617 43.7887 6.28738 43.6686 5.85929 43.6298C5.271 43.5763 4.67483 43.5615 4.08653 43.495C2.57116 43.3195 1.7675 43.242 1.12143 42.952C0.470109 42.662 0.414957 42.0321 0.414957 41.5833C0.414957 41.2877 0.580414 41.0107 0.913955 40.7484C1.2475 40.4861 1.74649 40.2811 2.4162 40.1296C3.08329 39.98 3.99987 39.9061 5.16332 39.9061C6.59203 39.9061 7.67932 40.0428 8.42782 40.3143C9.17894 40.5859 9.62279 41.1935 9.76461 41.7846H6.24273C6.269 41.7495 6.17445 41.5907 6.15869 41.5519C6.02475 41.2083 5.55201 41.1067 5.10029 41.0365C4.72998 40.9793 4.30714 40.9737 3.97098 41.1178C3.76875 41.2065 3.60855 41.2988 3.60855 41.4244C3.60855 41.5149 3.69259 41.5981 3.86067 41.6701C4.0235 41.7458 4.40957 41.816 5.0215 41.8807C6.53163 42.0487 7.61104 42.2168 8.26499 42.3868C8.91894 42.5585 9.39168 42.7691 9.69107 43.0222C9.98785 43.2752 10.1375 43.5578 10.1375 43.87C10.1375 44.2375 9.93795 44.5774 9.54138 44.8859C9.1448 45.1962 8.59065 45.4326 7.88155 45.5914C7.16982 45.7521 6.27425 45.8316 5.19221 45.8316C3.29339 45.8316 1.97498 45.6432 1.24487 45.2682C0.509504 44.8951 0.0971734 44.5017 0 43.9235ZM16.8294 40.0133H19.8943V44.0658C19.8943 44.8969 19.1589 45.4862 17.6908 45.8353C17.0106 45.9941 16.1964 45.9996 15.272 45.9996C14.4447 45.9996 13.7014 46.0107 13.016 45.8851C11.3982 45.4307 10.5893 44.8249 10.5893 44.0658V40.0133H13.6752V43.4839C13.6752 44.1156 13.7934 44.5866 15.272 44.5866C16.7795 44.5866 16.8084 44.0953 16.8084 43.4636L16.8294 40.0133ZM36.8707 40.0133H39.9356V44.0658C39.9356 44.8969 39.2003 45.4862 37.7322 45.8353C37.0519 45.9941 36.2378 45.9996 35.3133 45.9996C34.486 45.9996 33.7428 46.0107 33.0573 45.8851C31.4395 45.4307 30.6306 44.8249 30.6306 44.0658V40.0133H33.7165V43.4839C33.7165 44.1156 33.8373 44.5866 35.3133 44.5866C36.8208 44.5866 36.8497 44.0953 36.8497 43.4636L36.8707 40.0133ZM20.5246 40.0539H30.0187V41.3007L25.3806 44.232H30.0187V45.8648H20.5246V44.461L25.055 41.5703H20.5325L20.5246 40.0539ZM40.6973 45.8537V40.0447H43.7411V42.1947L47.024 40.0447H50.8322L46.4594 42.8596L51.0134 45.8537H46.9032L43.77 43.7758L43.7989 45.8537H40.6973ZM54.4854 40.0447V45.8556H51.4467V40.0465L54.4854 40.0447Z" fill="#B3B3B3"/>
</svg>
