<svg width="125" height="38" viewBox="0 0 125 38" fill="none" xmlns="http://www.w3.org/2000/svg">
<g clip-path="url(#clip0_1551_1558)">
<path fill-rule="evenodd" clip-rule="evenodd" d="M39.4842 31.7017H34.9445L37.056 28.0276L31.8828 19H36.5281L39.1674 24.3536L41.8068 19H46.3465L39.4842 31.7017Z" fill="#B3B3B3"/>
<path fill-rule="evenodd" clip-rule="evenodd" d="M96.6002 31.7017H90.8991C87.7319 31.7017 85.3037 29.1823 85.3037 25.5083C85.3037 21.4144 87.7319 19 90.8991 19H96.6002V22.1492H92.9051C90.688 22.1492 89.4211 22.779 89.4211 25.4033C89.4211 27.9226 90.688 28.4475 92.9051 28.4475H96.6002V31.7017Z" fill="#B3B3B3"/>
<path fill-rule="evenodd" clip-rule="evenodd" d="M111.381 31.7017H107.264V22.779L102.407 31.7017H97.4453V19H101.563V27.6077L106.419 19H111.381V31.7017Z" fill="#B3B3B3"/>
<path fill-rule="evenodd" clip-rule="evenodd" d="M57.5371 31.7017L62.9214 19H67.5667L72.0008 29.4972L76.4349 19H81.0802L86.4645 31.7017H82.0304L78.7576 22.5691L75.4847 31.7017H72.8454H71.0506H68.5168L67.5667 29.0773H62.9214L61.8657 31.7017H57.5371Z" fill="#B3B3B3"/>
<path fill-rule="evenodd" clip-rule="evenodd" d="M65.2436 22.5686L63.8711 26.1377H66.5104L65.2436 22.5686Z" fill="white"/>
<path fill-rule="evenodd" clip-rule="evenodd" d="M50.7815 31.7017H46.6641V19H55.2156C59.5441 19 59.5441 22.5691 59.5441 23.3039C59.5441 24.1436 59.5441 27.9226 55.2156 27.9226H50.7815V31.7017Z" fill="#B3B3B3"/>
<path fill-rule="evenodd" clip-rule="evenodd" d="M50.7812 24.8785H53.7373C54.1596 24.8785 55.4265 24.8785 55.4265 23.5138C55.4265 22.1492 54.2652 22.1492 53.7373 22.1492H50.7812V24.8785Z" fill="white"/>
<path fill-rule="evenodd" clip-rule="evenodd" d="M124.369 19.0005V22.1497H116.345V23.8292H120.568C125.002 23.8292 125.002 26.3486 125.002 27.7132C125.002 29.1828 125.002 31.7021 120.673 31.7021H112.228V19.0005H124.369Z" fill="#B3B3B3"/>
<path fill-rule="evenodd" clip-rule="evenodd" d="M116.448 26.7679V28.7624H119.932C120.882 28.7624 120.882 28.0276 120.882 27.7127C120.882 27.3978 120.882 26.7679 119.932 26.7679H116.448Z" fill="white"/>
<path fill-rule="evenodd" clip-rule="evenodd" d="M13.3024 12.7017C13.6191 12.7017 13.9358 12.7017 14.2525 12.8066L14.147 4.19889H15.2027C15.2027 4.19889 15.0971 6.61326 15.5194 13.0166C21.2204 14.2762 25.549 19.2099 25.549 25.2983C25.549 29.8122 23.1208 33.6961 19.6368 35.9006C19.5312 35.7956 19.4257 35.5856 19.3201 35.4807C15.5194 30.6519 14.5693 23.5138 14.3581 17.3204C14.886 17.4254 15.4138 17.5304 15.9417 17.6354C16.9975 24.4586 20.1647 28.9724 22.8041 31.8066C23.9654 30.232 24.7044 28.4475 24.7044 26.453C24.7044 24.1436 23.7542 22.1492 22.2762 20.4696C20.7981 18.7901 18.6867 17.5304 16.1529 16.9006C15.0971 16.6906 13.9358 16.4807 12.7745 16.4807C11.6132 16.4807 10.5574 16.5856 9.39611 16.9006C4.43412 18.1602 0.844594 21.9392 0.844594 26.453C0.844594 28.4475 1.58361 30.232 2.74493 31.8066C5.27872 28.9724 8.44594 24.4586 9.50169 17.6354C10.0296 17.5304 10.5574 17.5304 11.1909 17.3204C10.8742 23.5138 10.0296 30.6519 6.22888 35.4807V35.3757C6.12331 35.5856 5.91216 35.7956 5.80659 35.9006C2.21706 33.6961 0 29.8122 0 25.2983C0 19.2099 4.22297 14.2762 10.0296 13.0166C10.3463 6.61326 10.3463 4.19889 10.3463 4.19889H11.402L11.2965 12.8066C11.6132 12.7017 11.9299 12.7017 12.141 12.7017V0H13.3024V12.7017ZM13.4079 17.3204C13.5135 23.3039 13.9358 30.7569 15.9417 35.7956C16.1529 36.3204 16.4696 36.9503 16.7863 37.4751C15.5194 37.7901 14.147 38.105 12.8801 38.105C11.5076 38.105 10.1351 37.7901 8.97382 37.4751C9.29054 36.8453 9.60726 36.2155 9.81841 35.5856C11.7187 30.547 12.2466 23.1989 12.2466 17.2155C12.3522 17.2155 12.6689 17.2155 12.8801 17.2155C12.9856 17.3204 13.1968 17.3204 13.4079 17.3204Z" fill="#B3B3B3"/>
</g>
<defs>
<clipPath id="clip0_1551_1558">
<rect width="125" height="38" fill="white"/>
</clipPath>
</defs>
</svg>
