<svg width="52" height="41" viewBox="0 0 52 41" fill="none" xmlns="http://www.w3.org/2000/svg">
<g clip-path="url(#clip0_1551_1549)">
<path d="M51.8935 19.3274H0V22.4094H51.8935V19.3274Z" fill="#B3B3B3"/>
<path d="M0 40.9999H3.17842V37.5136H21.3522V25.4823H0V40.9999ZM3.17842 28.5553H18.1738V34.4317H3.17842V28.5553Z" fill="#B3B3B3"/>
<path d="M24.458 37.5141H36.4881V41.0004H39.7997V37.5141H51.8919V25.4828H24.458V37.5141ZM39.7997 28.5558H48.7134V34.4322H39.7997V28.5558ZM27.6364 28.5558H36.4881V34.4322H27.6364V28.5558Z" fill="#B3B3B3"/>
<path d="M47.5637 3.01907H51.044V0H36.1729V3.07298V13.2084V16.2005H46.0544C50.2716 16.2005 52.0117 14.053 52.0117 11.1687C52.0117 8.31142 50.3959 6.20885 46.152 6.20885H39.6709V3.01907H47.5637ZM46.152 9.20096C47.7679 9.20096 48.3894 10.1354 48.3894 11.2047C48.3894 12.2739 47.7679 13.1815 46.152 13.1815H39.6709V9.19198H46.152V9.20096Z" fill="#B3B3B3"/>
<path d="M26.0939 13.1904H18.4941V16.2095H26.4136C31.1013 16.2095 34.2975 12.9209 34.2975 8.10476C34.2975 3.28863 31.1013 0 26.4136 0H18.4941V3.01907H26.0939V3.02805C28.3313 3.02805 29.9826 4.43875 30.4798 6.64015H20.2076V9.57835H30.4798C29.9826 11.7708 28.3313 13.1904 26.0939 13.1904Z" fill="#B3B3B3"/>
<path d="M16.0349 4.44773C16.0349 1.77909 14.277 0 10.0599 0H0.0185547V16.2095H10.6725C14.8896 16.2095 16.6298 14.2417 16.6298 11.5371C16.6298 9.75805 15.8751 8.4462 14.0906 7.7723C15.4312 7.0984 16.0349 5.96625 16.0349 4.44773ZM3.51659 3.01907H10.1753C11.7734 3.01907 12.4126 3.98948 12.4126 5.02279C12.4126 6.03813 11.7911 6.84681 10.1753 6.84681H3.51659V3.01907ZM10.7701 13.2084H3.51659V9.30879H10.7701C12.4126 9.30879 13.0075 10.1983 13.0075 11.2496C13.0163 12.3009 12.4126 13.2084 10.7701 13.2084Z" fill="#B3B3B3"/>
</g>
<defs>
<clipPath id="clip0_1551_1549">
<rect width="52" height="41" fill="white"/>
</clipPath>
</defs>
</svg>
