<svg width="150" height="24" viewBox="0 0 150 24" fill="none" xmlns="http://www.w3.org/2000/svg">
<path d="M49.4233 3.72778H46.2314L43.0394 10.813L39.8814 3.72778H36.6895L41.6472 14.2139V20.4488H44.4656V14.2139L49.4233 3.72778Z" fill="#B3B3B3"/>
<path d="M55.3997 3.58606C59.916 3.58606 63.5494 7.41206 63.5494 12.0883C63.5494 16.7999 59.882 20.5905 55.3997 20.5905C50.8834 20.5905 47.25 16.7645 47.25 12.0883C47.25 7.41206 50.9174 3.58606 55.3997 3.58606ZM50.1363 12.0883C50.1363 15.1349 52.5133 17.5793 55.3997 17.5793C58.32 17.5793 60.663 15.0995 60.663 12.0883C60.663 9.04165 58.286 6.59726 55.3997 6.59726C52.4794 6.59726 50.1363 9.04165 50.1363 12.0883Z" fill="#B3B3B3"/>
<path d="M81.0032 3.58606C85.5195 3.58606 89.1529 7.41206 89.1529 12.0883C89.1529 16.7999 85.5195 20.5905 81.0032 20.5905C76.4869 20.5905 72.8535 16.7645 72.8535 12.0883C72.8535 7.41206 76.5209 3.58606 81.0032 3.58606ZM75.7399 12.0883C75.7399 15.1349 78.1169 17.5793 81.0032 17.5793C83.9235 17.5793 86.2666 15.0995 86.2666 12.0883C86.2666 9.04165 83.8896 6.59726 81.0032 6.59726C78.1169 6.59726 75.7399 9.04165 75.7399 12.0883Z" fill="#B3B3B3"/>
<path d="M75.5697 3.58606H71.9703L67.1484 10.7067V3.58606H64.1602V20.3071H67.1484V13.4345L71.7326 20.3071H75.332L69.4575 12.1237L75.5697 3.58606Z" fill="#B3B3B3"/>
<path d="M98.3208 3.72778V10.7775H92.8538V3.72778H89.7637V20.4488H92.8538V13.7887H98.3208V20.4488H101.411V3.72778H98.3208Z" fill="#B3B3B3"/>
<path d="M113.534 20.4488H116.625L110.716 3.72778H110.41H107.965H107.864L101.955 20.4488H105.045L106.471 16.4457H112.142L113.534 20.4488ZM107.422 13.7179L109.29 8.43943L111.157 13.7179H107.422Z" fill="#B3B3B3"/>
<path d="M146.166 20.4488H149.256L143.348 3.72778H143.042H140.597H140.495L134.553 20.4488H137.643L139.069 16.4457H144.74L146.166 20.4488ZM140.054 13.7179L141.921 8.43943L143.789 13.7179H140.054Z" fill="#B3B3B3"/>
<path d="M132.923 3.72778H130.818H129.969L125.487 16.1623L121.005 3.72778H120.156H118.05H117.235V20.4488H120.156V9.53763L124.095 20.4488H124.264H126.709H126.879L130.818 9.53763V20.4488H133.738V3.72778H132.923Z" fill="#B3B3B3"/>
<path d="M1.06791 23L11.5946 12.0534L1 1.00049H3.00346L13.5981 12.0534L3.07138 23H1.06791Z" fill="#B3B3B3" stroke="#ABABAB" stroke-width="0.15"/>
<path d="M4.29448 22.9995L14.8212 12.0529L4.22656 1H6.26398L16.8246 12.0529L6.3319 22.9995H4.29448Z" fill="#B3B3B3" stroke="#ABABAB" stroke-width="0.15"/>
<path d="M7.55424 22.9995L18.047 12.0529L7.48633 1H9.48979L20.0844 12.0529L9.55771 22.9995H7.55424Z" fill="#B3B3B3" stroke="#ABABAB" stroke-width="0.15"/>
<path d="M10.7798 22.9995L21.3065 12.0529L10.7119 1H12.7154L23.31 12.0529L12.8173 22.9995H10.7798Z" fill="#B3B3B3" stroke="#ABABAB" stroke-width="0.15"/>
<path d="M35.1267 1L25.5508 10.9901L24.9396 10.3524L33.9042 1H31.9008L23.9209 9.28966L23.3096 8.652L30.6783 1H28.6409L22.2909 7.62464L21.6797 6.98698L27.4184 1H25.415L20.6949 5.9242L20.0837 5.28653L24.1925 1H22.1551L19.065 4.22376L15.9749 1H13.9375L24.5321 12.0529L14.0394 22.9995H16.0428L26.5356 12.0529L37.1301 1H35.1267Z" fill="#B3B3B3" stroke="#ABABAB" stroke-width="0.15"/>
</svg>
